<svg width="128" height="128" viewBox="0 0 128 128" fill="none" xmlns="http://www.w3.org/2000/svg">
<rect x="36" y="4" width="4" height="4" fill="#4C381D"/>
<rect x="40" y="4" width="4" height="4" fill="#604325"/>
<rect x="44" y="4" width="4" height="4" fill="#604323"/>
<rect x="48" y="4" width="4" height="4" fill="#604323"/>
<rect x="52" y="4" width="4" height="4" fill="#6B4727"/>
<rect x="56" y="4" width="4" height="4" fill="#774F2B"/>
<rect x="60" y="4" width="4" height="4" fill="#774F2B"/>
<rect x="64" y="4" width="4" height="4" fill="#774F2C"/>
<rect x="68" y="4" width="4" height="4" fill="#774F2B"/>
<rect x="72" y="4" width="4" height="4" fill="#774F2B"/>
<rect x="76" y="4" width="4" height="4" fill="#6D4627"/>
<rect x="80" y="4" width="4" height="4" fill="#604323"/>
<rect x="84" y="4" width="4" height="4" fill="#6D4627"/>
<rect x="88" y="4" width="4" height="4" fill="#604323"/>
<rect x="28" y="8" width="4" height="4" fill="#332B16"/>
<rect x="32" y="8" width="4" height="4" fill="#614225"/>
<rect x="36" y="8" width="4" height="4" fill="#533E21"/>
<rect x="40" y="8" width="4" height="4" fill="#805231"/>
<rect x="44" y="8" width="4" height="4" fill="#8D6035"/>
<rect x="48" y="8" width="4" height="4" fill="#A96E44"/>
<rect x="52" y="8" width="4" height="4" fill="#BF7B4E"/>
<rect x="56" y="8" width="4" height="4" fill="#CD8451"/>
<rect x="60" y="8" width="4" height="4" fill="#CF8653"/>
<rect x="64" y="8" width="4" height="4" fill="#CD8354"/>
<rect x="68" y="8" width="4" height="4" fill="#BF7B4C"/>
<rect x="72" y="8" width="4" height="4" fill="#AC6D42"/>
<rect x="76" y="8" width="4" height="4" fill="#9C623D"/>
<rect x="80" y="8" width="4" height="4" fill="#76502C"/>
<rect x="84" y="8" width="4" height="4" fill="#5D4425"/>
<rect x="88" y="8" width="4" height="4" fill="#553E1E"/>
<rect x="92" y="8" width="4" height="4" fill="#604325"/>
<rect x="96" y="8" width="4" height="4" fill="#60441D"/>
<rect x="24" y="12" width="4" height="4" fill="#332C11"/>
<rect x="28" y="12" width="4" height="4" fill="#604323"/>
<rect x="32" y="12" width="4" height="4" fill="#774F2B"/>
<rect x="36" y="12" width="4" height="4" fill="#905F37"/>
<rect x="40" y="12" width="4" height="4" fill="#AD7044"/>
<rect x="44" y="12" width="4" height="4" fill="#BD7B49"/>
<rect x="48" y="12" width="4" height="4" fill="#BF7B4A"/>
<rect x="52" y="12" width="4" height="4" fill="#BE7C4C"/>
<rect x="56" y="12" width="4" height="4" fill="#BF7B4A"/>
<rect x="60" y="12" width="4" height="4" fill="#B37546"/>
<rect x="64" y="12" width="4" height="4" fill="#99643C"/>
<rect x="68" y="12" width="4" height="4" fill="#9C623C"/>
<rect x="72" y="12" width="4" height="4" fill="#99643A"/>
<rect x="76" y="12" width="4" height="4" fill="#905F36"/>
<rect x="80" y="12" width="4" height="4" fill="#8F5F37"/>
<rect x="84" y="12" width="4" height="4" fill="#774F2B"/>
<rect x="88" y="12" width="4" height="4" fill="#775029"/>
<rect x="92" y="12" width="4" height="4" fill="#533E1F"/>
<rect x="96" y="12" width="4" height="4" fill="#4B3619"/>
<rect x="100" y="12" width="4" height="4" fill="#332B14"/>
<rect x="24" y="16" width="4" height="4" fill="#322C14"/>
<rect x="28" y="16" width="4" height="4" fill="#7B4F2C"/>
<rect x="32" y="16" width="4" height="4" fill="#855733"/>
<rect x="36" y="16" width="4" height="4" fill="#774F2B"/>
<rect x="40" y="16" width="4" height="4" fill="#8D6037"/>
<rect x="44" y="16" width="4" height="4" fill="#9A633C"/>
<rect x="48" y="16" width="4" height="4" fill="#B57343"/>
<rect x="52" y="16" width="4" height="4" fill="#875733"/>
<rect x="56" y="16" width="4" height="4" fill="#AC6F43"/>
<rect x="60" y="16" width="4" height="4" fill="#8F5F39"/>
<rect x="64" y="16" width="4" height="4" fill="#A46C3D"/>
<rect x="68" y="16" width="4" height="4" fill="#764F2E"/>
<rect x="72" y="16" width="4" height="4" fill="#774F2B"/>
<rect x="76" y="16" width="4" height="4" fill="#794E2B"/>
<rect x="80" y="16" width="4" height="4" fill="#775029"/>
<rect x="84" y="16" width="4" height="4" fill="#604325"/>
<rect x="88" y="16" width="4" height="4" fill="#533F1E"/>
<rect x="92" y="16" width="4" height="4" fill="#332B14"/>
<rect x="96" y="16" width="4" height="4" fill="#332B16"/>
<rect x="100" y="16" width="4" height="4" fill="#2B2310"/>
<rect x="20" y="20" width="4" height="4" fill="#2B2310"/>
<rect x="24" y="20" width="4" height="4" fill="#3F2F16"/>
<rect x="28" y="20" width="4" height="4" fill="#604321"/>
<rect x="32" y="20" width="4" height="4" fill="#775029"/>
<rect x="36" y="20" width="4" height="4" fill="#5F4224"/>
<rect x="40" y="20" width="4" height="4" fill="#8F5D38"/>
<rect x="44" y="20" width="4" height="4" fill="#9B6237"/>
<rect x="48" y="20" width="4" height="4" fill="#8F5F37"/>
<rect x="52" y="20" width="4" height="4" fill="#8F6036"/>
<rect x="56" y="20" width="4" height="4" fill="#8F5F37"/>
<rect x="60" y="20" width="4" height="4" fill="#8F5F37"/>
<rect x="64" y="20" width="4" height="4" fill="#4B381A"/>
<rect x="68" y="20" width="4" height="4" fill="#8E5F35"/>
<rect x="72" y="20" width="4" height="4" fill="#604323"/>
<rect x="76" y="20" width="4" height="4" fill="#4B371C"/>
<rect x="80" y="20" width="4" height="4" fill="#624422"/>
<rect x="84" y="20" width="4" height="4" fill="#4C371A"/>
<rect x="88" y="20" width="4" height="4" fill="#322A13"/>
<rect x="92" y="20" width="4" height="4" fill="#2A220F"/>
<rect x="96" y="20" width="4" height="4" fill="#2C2310"/>
<rect x="100" y="20" width="4" height="4" fill="#29210E"/>
<rect x="104" y="20" width="4" height="4" fill="#2B2310"/>
<rect x="20" y="24" width="4" height="4" fill="#2D2111"/>
<rect x="24" y="24" width="4" height="4" fill="#3F2F16"/>
<rect x="28" y="24" width="4" height="4" fill="#4B381A"/>
<rect x="32" y="24" width="4" height="4" fill="#533E1F"/>
<rect x="36" y="24" width="4" height="4" fill="#604323"/>
<rect x="40" y="24" width="4" height="4" fill="#8D6037"/>
<rect x="44" y="24" width="4" height="4" fill="#523F1F"/>
<rect x="48" y="24" width="4" height="4" fill="#9C623C"/>
<rect x="52" y="24" width="4" height="4" fill="#6B4727"/>
<rect x="56" y="24" width="4" height="4" fill="#6B4727"/>
<rect x="60" y="24" width="4" height="4" fill="#905F36"/>
<rect x="64" y="24" width="4" height="4" fill="#6A4727"/>
<rect x="68" y="24" width="4" height="4" fill="#4B371C"/>
<rect x="72" y="24" width="4" height="4" fill="#6D4627"/>
<rect x="76" y="24" width="4" height="4" fill="#4B371C"/>
<rect x="80" y="24" width="4" height="4" fill="#3F2F16"/>
<rect x="84" y="24" width="4" height="4" fill="#5D4523"/>
<rect x="88" y="24" width="4" height="4" fill="#2D2210"/>
<rect x="92" y="24" width="4" height="4" fill="#332B14"/>
<rect x="96" y="24" width="4" height="4" fill="#332B14"/>
<rect x="100" y="24" width="4" height="4" fill="#3F2F16"/>
<rect x="104" y="24" width="4" height="4" fill="#2B2310"/>
<rect x="20" y="28" width="4" height="4" fill="#2B2211"/>
<rect x="24" y="28" width="4" height="4" fill="#4C371C"/>
<rect x="28" y="28" width="4" height="4" fill="#4A391B"/>
<rect x="32" y="28" width="4" height="4" fill="#744E29"/>
<rect x="36" y="28" width="4" height="4" fill="#754F2B"/>
<rect x="40" y="28" width="4" height="4" fill="#523F1E"/>
<rect x="44" y="28" width="4" height="4" fill="#905E39"/>
<rect x="48" y="28" width="4" height="4" fill="#533E1F"/>
<rect x="52" y="28" width="4" height="4" fill="#6B4725"/>
<rect x="56" y="28" width="4" height="4" fill="#774F2B"/>
<rect x="60" y="28" width="4" height="4" fill="#6D4625"/>
<rect x="64" y="28" width="4" height="4" fill="#6A4729"/>
<rect x="68" y="28" width="4" height="4" fill="#8F5F37"/>
<rect x="72" y="28" width="4" height="4" fill="#8E5E36"/>
<rect x="76" y="28" width="4" height="4" fill="#8D6037"/>
<rect x="80" y="28" width="4" height="4" fill="#875732"/>
<rect x="84" y="28" width="4" height="4" fill="#875733"/>
<rect x="88" y="28" width="4" height="4" fill="#6B4727"/>
<rect x="92" y="28" width="4" height="4" fill="#4B371F"/>
<rect x="96" y="28" width="4" height="4" fill="#3F2F15"/>
<rect x="100" y="28" width="4" height="4" fill="#4C371A"/>
<rect x="104" y="28" width="4" height="4" fill="#2B2310"/>
<rect x="20" y="32" width="4" height="4" fill="#2A2110"/>
<rect x="24" y="32" width="4" height="4" fill="#4B371C"/>
<rect x="28" y="32" width="4" height="4" fill="#513E1D"/>
<rect x="32" y="32" width="4" height="4" fill="#744E29"/>
<rect x="36" y="32" width="4" height="4" fill="#8F5F39"/>
<rect x="40" y="32" width="4" height="4" fill="#76502B"/>
<rect x="44" y="32" width="4" height="4" fill="#533E1F"/>
<rect x="48" y="32" width="4" height="4" fill="#A16C44"/>
<rect x="52" y="32" width="4" height="4" fill="#543D1B"/>
<rect x="56" y="32" width="4" height="4" fill="#764F2D"/>
<rect x="60" y="32" width="4" height="4" fill="#905E39"/>
<rect x="64" y="32" width="4" height="4" fill="#A36941"/>
<rect x="68" y="32" width="4" height="4" fill="#B47347"/>
<rect x="72" y="32" width="4" height="4" fill="#9A633C"/>
<rect x="76" y="32" width="4" height="4" fill="#A46A3F"/>
<rect x="80" y="32" width="4" height="4" fill="#8F5F37"/>
<rect x="84" y="32" width="4" height="4" fill="#905F37"/>
<rect x="88" y="32" width="4" height="4" fill="#90603A"/>
<rect x="92" y="32" width="4" height="4" fill="#6C4729"/>
<rect x="96" y="32" width="4" height="4" fill="#4C381D"/>
<rect x="100" y="32" width="4" height="4" fill="#4B371C"/>
<rect x="104" y="32" width="4" height="4" fill="#2B2310"/>
<rect x="20" y="36" width="4" height="4" fill="#2B2211"/>
<rect x="24" y="36" width="4" height="4" fill="#4B371C"/>
<rect x="28" y="36" width="4" height="4" fill="#634125"/>
<rect x="32" y="36" width="4" height="4" fill="#8D6037"/>
<rect x="36" y="36" width="4" height="4" fill="#AC6E45"/>
<rect x="40" y="36" width="4" height="4" fill="#B27347"/>
<rect x="44" y="36" width="4" height="4" fill="#A26A3B"/>
<rect x="48" y="36" width="4" height="4" fill="#A66B3F"/>
<rect x="52" y="36" width="4" height="4" fill="#B37346"/>
<rect x="56" y="36" width="4" height="4" fill="#B37347"/>
<rect x="60" y="36" width="4" height="4" fill="#B47144"/>
<rect x="64" y="36" width="4" height="4" fill="#B57247"/>
<rect x="68" y="36" width="4" height="4" fill="#B37347"/>
<rect x="72" y="36" width="4" height="4" fill="#B37344"/>
<rect x="76" y="36" width="4" height="4" fill="#A46A42"/>
<rect x="80" y="36" width="4" height="4" fill="#A46B40"/>
<rect x="84" y="36" width="4" height="4" fill="#B47246"/>
<rect x="88" y="36" width="4" height="4" fill="#AD6E43"/>
<rect x="92" y="36" width="4" height="4" fill="#916037"/>
<rect x="96" y="36" width="4" height="4" fill="#523F21"/>
<rect x="100" y="36" width="4" height="4" fill="#4B371C"/>
<rect x="104" y="36" width="4" height="4" fill="#2B2310"/>
<rect x="20" y="40" width="4" height="4" fill="#2B2211"/>
<rect x="24" y="40" width="4" height="4" fill="#4B351D"/>
<rect x="28" y="40" width="4" height="4" fill="#745129"/>
<rect x="32" y="40" width="4" height="4" fill="#9A633C"/>
<rect x="36" y="40" width="4" height="4" fill="#CF8352"/>
<rect x="40" y="40" width="4" height="4" fill="#CB7F4E"/>
<rect x="44" y="40" width="4" height="4" fill="#CC7E4E"/>
<rect x="48" y="40" width="4" height="4" fill="#B47448"/>
<rect x="52" y="40" width="4" height="4" fill="#A46B40"/>
<rect x="56" y="40" width="4" height="4" fill="#AC6F43"/>
<rect x="60" y="40" width="4" height="4" fill="#AA7042"/>
<rect x="64" y="40" width="4" height="4" fill="#AA6F43"/>
<rect x="68" y="40" width="4" height="4" fill="#AB6E42"/>
<rect x="72" y="40" width="4" height="4" fill="#A26C40"/>
<rect x="76" y="40" width="4" height="4" fill="#B27348"/>
<rect x="80" y="40" width="4" height="4" fill="#CB7F4D"/>
<rect x="84" y="40" width="4" height="4" fill="#CB7F4E"/>
<rect x="88" y="40" width="4" height="4" fill="#CF8254"/>
<rect x="92" y="40" width="4" height="4" fill="#9A623D"/>
<rect x="96" y="40" width="4" height="4" fill="#604321"/>
<rect x="100" y="40" width="4" height="4" fill="#4B371C"/>
<rect x="104" y="40" width="4" height="4" fill="#2B2310"/>
<rect x="20" y="44" width="4" height="4" fill="#2A2310"/>
<rect x="24" y="44" width="4" height="4" fill="#4B371C"/>
<rect x="28" y="44" width="4" height="4" fill="#76502B"/>
<rect x="32" y="44" width="4" height="4" fill="#99643C"/>
<rect x="36" y="44" width="4" height="4" fill="#CF8352"/>
<rect x="40" y="44" width="4" height="4" fill="#ECA271"/>
<rect x="44" y="44" width="4" height="4" fill="#E79B6A"/>
<rect x="48" y="44" width="4" height="4" fill="#CE8251"/>
<rect x="52" y="44" width="4" height="4" fill="#C17A4C"/>
<rect x="56" y="44" width="4" height="4" fill="#A46B40"/>
<rect x="60" y="44" width="4" height="4" fill="#8F5F37"/>
<rect x="64" y="44" width="4" height="4" fill="#8F5F37"/>
<rect x="68" y="44" width="4" height="4" fill="#A56A40"/>
<rect x="72" y="44" width="4" height="4" fill="#BE7C4C"/>
<rect x="76" y="44" width="4" height="4" fill="#CF8352"/>
<rect x="80" y="44" width="4" height="4" fill="#E79B6A"/>
<rect x="84" y="44" width="4" height="4" fill="#EFA372"/>
<rect x="88" y="44" width="4" height="4" fill="#CF8351"/>
<rect x="92" y="44" width="4" height="4" fill="#9C623C"/>
<rect x="96" y="44" width="4" height="4" fill="#775029"/>
<rect x="100" y="44" width="4" height="4" fill="#4B371C"/>
<rect x="104" y="44" width="4" height="4" fill="#2B2310"/>
<rect x="20" y="48" width="4" height="4" fill="#2A230E"/>
<rect x="24" y="48" width="4" height="4" fill="#4B371C"/>
<rect x="28" y="48" width="4" height="4" fill="#76502B"/>
<rect x="32" y="48" width="4" height="4" fill="#B57247"/>
<rect x="36" y="48" width="4" height="4" fill="#E89A69"/>
<rect x="40" y="48" width="4" height="4" fill="#FFBB94"/>
<rect x="44" y="48" width="4" height="4" fill="#FFBB94"/>
<rect x="48" y="48" width="4" height="4" fill="#E79B6A"/>
<rect x="52" y="48" width="4" height="4" fill="#E89867"/>
<rect x="56" y="48" width="4" height="4" fill="#D08251"/>
<rect x="60" y="48" width="4" height="4" fill="#D68858"/>
<rect x="64" y="48" width="4" height="4" fill="#D88A59"/>
<rect x="68" y="48" width="4" height="4" fill="#CF834F"/>
<rect x="72" y="48" width="4" height="4" fill="#E79B69"/>
<rect x="76" y="48" width="4" height="4" fill="#EA9A69"/>
<rect x="80" y="48" width="4" height="4" fill="#FCBB91"/>
<rect x="84" y="48" width="4" height="4" fill="#FFBB94"/>
<rect x="88" y="48" width="4" height="4" fill="#E89A6A"/>
<rect x="92" y="48" width="4" height="4" fill="#B67148"/>
<rect x="96" y="48" width="4" height="4" fill="#76502C"/>
<rect x="100" y="48" width="4" height="4" fill="#4B371C"/>
<rect x="104" y="48" width="4" height="4" fill="#2B2310"/>
<rect x="16" y="52" width="4" height="4" fill="#B5714E"/>
<rect x="20" y="52" width="4" height="4" fill="#6D4723"/>
<rect x="24" y="52" width="4" height="4" fill="#4C371A"/>
<rect x="28" y="52" width="4" height="4" fill="#76502C"/>
<rect x="32" y="52" width="4" height="4" fill="#6B4629"/>
<rect x="36" y="52" width="4" height="4" fill="#6D4627"/>
<rect x="40" y="52" width="4" height="4" fill="#554021"/>
<rect x="44" y="52" width="4" height="4" fill="#A16D45"/>
<rect x="48" y="52" width="4" height="4" fill="#E39767"/>
<rect x="52" y="52" width="4" height="4" fill="#B2744A"/>
<rect x="56" y="52" width="4" height="4" fill="#785029"/>
<rect x="60" y="52" width="4" height="4" fill="#B57245"/>
<rect x="64" y="52" width="4" height="4" fill="#B37248"/>
<rect x="68" y="52" width="4" height="4" fill="#775029"/>
<rect x="72" y="52" width="4" height="4" fill="#B37248"/>
<rect x="76" y="52" width="4" height="4" fill="#DF9361"/>
<rect x="80" y="52" width="4" height="4" fill="#A26B42"/>
<rect x="84" y="52" width="4" height="4" fill="#553E1F"/>
<rect x="88" y="52" width="4" height="4" fill="#694829"/>
<rect x="92" y="52" width="4" height="4" fill="#6D4625"/>
<rect x="96" y="52" width="4" height="4" fill="#794F28"/>
<rect x="100" y="52" width="4" height="4" fill="#4B371C"/>
<rect x="104" y="52" width="4" height="4" fill="#6C4826"/>
<rect x="108" y="52" width="4" height="4" fill="#AF744A"/>
<rect x="16" y="56" width="4" height="4" fill="#B57247"/>
<rect x="20" y="56" width="4" height="4" fill="#6B4727"/>
<rect x="24" y="56" width="4" height="4" fill="#463324"/>
<rect x="28" y="56" width="4" height="4" fill="#8F6036"/>
<rect x="32" y="56" width="4" height="4" fill="#A96F45"/>
<rect x="36" y="56" width="4" height="4" fill="#604325"/>
<rect x="40" y="56" width="4" height="4" fill="#402E16"/>
<rect x="44" y="56" width="4" height="4" fill="#3E3017"/>
<rect x="48" y="56" width="4" height="4" fill="#402F15"/>
<rect x="52" y="56" width="4" height="4" fill="#4A371F"/>
<rect x="56" y="56" width="4" height="4" fill="#402E16"/>
<rect x="60" y="56" width="4" height="4" fill="#8F5F37"/>
<rect x="64" y="56" width="4" height="4" fill="#905E39"/>
<rect x="68" y="56" width="4" height="4" fill="#3F2F16"/>
<rect x="72" y="56" width="4" height="4" fill="#4B371F"/>
<rect x="76" y="56" width="4" height="4" fill="#412F11"/>
<rect x="80" y="56" width="4" height="4" fill="#422E13"/>
<rect x="84" y="56" width="4" height="4" fill="#3F2F16"/>
<rect x="88" y="56" width="4" height="4" fill="#614321"/>
<rect x="92" y="56" width="4" height="4" fill="#A96F47"/>
<rect x="96" y="56" width="4" height="4" fill="#8F6032"/>
<rect x="100" y="56" width="4" height="4" fill="#443323"/>
<rect x="104" y="56" width="4" height="4" fill="#6B4727"/>
<rect x="108" y="56" width="4" height="4" fill="#B37343"/>
<rect x="16" y="60" width="4" height="4" fill="#90603A"/>
<rect x="20" y="60" width="4" height="4" fill="#6B4728"/>
<rect x="24" y="60" width="4" height="4" fill="#6B5033"/>
<rect x="28" y="60" width="4" height="4" fill="#B57549"/>
<rect x="32" y="60" width="4" height="4" fill="#774F2C"/>
<rect x="36" y="60" width="4" height="4" fill="#6C6B69"/>
<rect x="40" y="60" width="4" height="4" fill="#010002"/>
<rect x="44" y="60" width="4" height="4" fill="#69696B"/>
<rect x="48" y="60" width="4" height="4" fill="#3B3B3B"/>
<rect x="52" y="60" width="4" height="4" fill="black"/>
<rect x="56" y="60" width="4" height="4" fill="#533E21"/>
<rect x="60" y="60" width="4" height="4" fill="#D48C5A"/>
<rect x="64" y="60" width="4" height="4" fill="#D68B5A"/>
<rect x="68" y="60" width="4" height="4" fill="#4F3E22"/>
<rect x="72" y="60" width="4" height="4" fill="#000001"/>
<rect x="76" y="60" width="4" height="4" fill="#6B6A6F"/>
<rect x="80" y="60" width="4" height="4" fill="#030002"/>
<rect x="84" y="60" width="4" height="4" fill="#726869"/>
<rect x="88" y="60" width="4" height="4" fill="#B1B5B4"/>
<rect x="92" y="60" width="4" height="4" fill="#76502C"/>
<rect x="96" y="60" width="4" height="4" fill="#B8704A"/>
<rect x="100" y="60" width="4" height="4" fill="#695230"/>
<rect x="104" y="60" width="4" height="4" fill="#6D4627"/>
<rect x="108" y="60" width="4" height="4" fill="#8C6039"/>
<rect x="16" y="64" width="4" height="4" fill="#6B4727"/>
<rect x="20" y="64" width="4" height="4" fill="#604323"/>
<rect x="24" y="64" width="4" height="4" fill="#875635"/>
<rect x="28" y="64" width="4" height="4" fill="#B57549"/>
<rect x="32" y="64" width="4" height="4" fill="#8F5F37"/>
<rect x="36" y="64" width="4" height="4" fill="#AB6E42"/>
<rect x="40" y="64" width="4" height="4" fill="#EB9798"/>
<rect x="44" y="64" width="4" height="4" fill="#BB5755"/>
<rect x="48" y="64" width="4" height="4" fill="#6A4727"/>
<rect x="52" y="64" width="4" height="4" fill="#614225"/>
<rect x="56" y="64" width="4" height="4" fill="#8F6038"/>
<rect x="60" y="64" width="4" height="4" fill="#CC8551"/>
<rect x="64" y="64" width="4" height="4" fill="#E79B69"/>
<rect x="68" y="64" width="4" height="4" fill="#8F5F39"/>
<rect x="72" y="64" width="4" height="4" fill="#5E4325"/>
<rect x="76" y="64" width="4" height="4" fill="#6A4729"/>
<rect x="80" y="64" width="4" height="4" fill="#BC5654"/>
<rect x="84" y="64" width="4" height="4" fill="#EE9597"/>
<rect x="88" y="64" width="4" height="4" fill="#AA6F43"/>
<rect x="92" y="64" width="4" height="4" fill="#905E39"/>
<rect x="96" y="64" width="4" height="4" fill="#B57343"/>
<rect x="100" y="64" width="4" height="4" fill="#885834"/>
<rect x="104" y="64" width="4" height="4" fill="#5F4222"/>
<rect x="108" y="64" width="4" height="4" fill="#6C4828"/>
<rect x="16" y="68" width="4" height="4" fill="#885834"/>
<rect x="20" y="68" width="4" height="4" fill="#604325"/>
<rect x="24" y="68" width="4" height="4" fill="#885635"/>
<rect x="28" y="68" width="4" height="4" fill="#DE7C7D"/>
<rect x="32" y="68" width="4" height="4" fill="#D88A5A"/>
<rect x="36" y="68" width="4" height="4" fill="#C07C4D"/>
<rect x="40" y="68" width="4" height="4" fill="#AE7145"/>
<rect x="44" y="68" width="4" height="4" fill="#8E5F38"/>
<rect x="48" y="68" width="4" height="4" fill="#AD7044"/>
<rect x="52" y="68" width="4" height="4" fill="#C97D4C"/>
<rect x="56" y="68" width="4" height="4" fill="#D78B5A"/>
<rect x="60" y="68" width="4" height="4" fill="#FFA25C"/>
<rect x="64" y="68" width="4" height="4" fill="#FFB47B"/>
<rect x="68" y="68" width="4" height="4" fill="#D98B5A"/>
<rect x="72" y="68" width="4" height="4" fill="#C9804D"/>
<rect x="76" y="68" width="4" height="4" fill="#AC6F43"/>
<rect x="80" y="68" width="4" height="4" fill="#8F5F37"/>
<rect x="84" y="68" width="4" height="4" fill="#A97142"/>
<rect x="88" y="68" width="4" height="4" fill="#BF7B4C"/>
<rect x="92" y="68" width="4" height="4" fill="#D88A5C"/>
<rect x="96" y="68" width="4" height="4" fill="#DC7A79"/>
<rect x="100" y="68" width="4" height="4" fill="#875733"/>
<rect x="104" y="68" width="4" height="4" fill="#604323"/>
<rect x="108" y="68" width="4" height="4" fill="#875733"/>
<rect x="16" y="72" width="4" height="4" fill="#8F6036"/>
<rect x="20" y="72" width="4" height="4" fill="#61431F"/>
<rect x="24" y="72" width="4" height="4" fill="#8E5E36"/>
<rect x="28" y="72" width="4" height="4" fill="#CF8351"/>
<rect x="32" y="72" width="4" height="4" fill="#E09261"/>
<rect x="36" y="72" width="4" height="4" fill="#F0A375"/>
<rect x="40" y="72" width="4" height="4" fill="#DE9362"/>
<rect x="44" y="72" width="4" height="4" fill="#CA7E4D"/>
<rect x="48" y="72" width="4" height="4" fill="#FFA156"/>
<rect x="52" y="72" width="4" height="4" fill="#FDBC96"/>
<rect x="56" y="72" width="4" height="4" fill="#E79B6A"/>
<rect x="60" y="72" width="4" height="4" fill="#FDA45D"/>
<rect x="64" y="72" width="4" height="4" fill="#FFB379"/>
<rect x="68" y="72" width="4" height="4" fill="#E79B67"/>
<rect x="72" y="72" width="4" height="4" fill="#FFBB96"/>
<rect x="76" y="72" width="4" height="4" fill="#FBA55C"/>
<rect x="80" y="72" width="4" height="4" fill="#C97F50"/>
<rect x="84" y="72" width="4" height="4" fill="#DE9362"/>
<rect x="88" y="72" width="4" height="4" fill="#F0A272"/>
<rect x="92" y="72" width="4" height="4" fill="#DF9361"/>
<rect x="96" y="72" width="4" height="4" fill="#D28058"/>
<rect x="100" y="72" width="4" height="4" fill="#915F3A"/>
<rect x="104" y="72" width="4" height="4" fill="#604222"/>
<rect x="108" y="72" width="4" height="4" fill="#8F6036"/>
<rect x="20" y="76" width="4" height="4" fill="#604225"/>
<rect x="24" y="76" width="4" height="4" fill="#885633"/>
<rect x="28" y="76" width="4" height="4" fill="#A46B40"/>
<rect x="32" y="76" width="4" height="4" fill="#AD6E43"/>
<rect x="36" y="76" width="4" height="4" fill="#BF7B4C"/>
<rect x="40" y="76" width="4" height="4" fill="#D88A5A"/>
<rect x="44" y="76" width="4" height="4" fill="#FEA35B"/>
<rect x="48" y="76" width="4" height="4" fill="#FFC69D"/>
<rect x="52" y="76" width="4" height="4" fill="#E09261"/>
<rect x="56" y="76" width="4" height="4" fill="#DA895A"/>
<rect x="60" y="76" width="4" height="4" fill="#FEB37A"/>
<rect x="64" y="76" width="4" height="4" fill="#FDD9B7"/>
<rect x="68" y="76" width="4" height="4" fill="#D88B57"/>
<rect x="72" y="76" width="4" height="4" fill="#DD9362"/>
<rect x="76" y="76" width="4" height="4" fill="#FFC5A7"/>
<rect x="80" y="76" width="4" height="4" fill="#FFA35A"/>
<rect x="84" y="76" width="4" height="4" fill="#D58C57"/>
<rect x="88" y="76" width="4" height="4" fill="#C17A4C"/>
<rect x="92" y="76" width="4" height="4" fill="#AD6E43"/>
<rect x="96" y="76" width="4" height="4" fill="#A16C44"/>
<rect x="100" y="76" width="4" height="4" fill="#875733"/>
<rect x="104" y="76" width="4" height="4" fill="#604323"/>
<rect x="20" y="80" width="4" height="4" fill="#634221"/>
<rect x="24" y="80" width="4" height="4" fill="#794E2B"/>
<rect x="28" y="80" width="4" height="4" fill="#9C613B"/>
<rect x="32" y="80" width="4" height="4" fill="#A46A42"/>
<rect x="36" y="80" width="4" height="4" fill="#BE7B4E"/>
<rect x="40" y="80" width="4" height="4" fill="#EFA372"/>
<rect x="44" y="80" width="4" height="4" fill="#F7AB79"/>
<rect x="48" y="80" width="4" height="4" fill="#D5885A"/>
<rect x="52" y="80" width="4" height="4" fill="#AD6E42"/>
<rect x="56" y="80" width="4" height="4" fill="#9A633C"/>
<rect x="60" y="80" width="4" height="4" fill="#A08362"/>
<rect x="64" y="80" width="4" height="4" fill="#A08365"/>
<rect x="68" y="80" width="4" height="4" fill="#9A633C"/>
<rect x="72" y="80" width="4" height="4" fill="#B06D41"/>
<rect x="76" y="80" width="4" height="4" fill="#D78B5A"/>
<rect x="80" y="80" width="4" height="4" fill="#F8A97E"/>
<rect x="84" y="80" width="4" height="4" fill="#F0A36F"/>
<rect x="88" y="80" width="4" height="4" fill="#C17A4E"/>
<rect x="92" y="80" width="4" height="4" fill="#A56A40"/>
<rect x="96" y="80" width="4" height="4" fill="#98643F"/>
<rect x="100" y="80" width="4" height="4" fill="#774F2B"/>
<rect x="104" y="80" width="4" height="4" fill="#5F4423"/>
<rect x="24" y="84" width="4" height="4" fill="#7A4F28"/>
<rect x="28" y="84" width="4" height="4" fill="#B37345"/>
<rect x="32" y="84" width="4" height="4" fill="#9A633C"/>
<rect x="36" y="84" width="4" height="4" fill="#D78B5A"/>
<rect x="40" y="84" width="4" height="4" fill="#FFBB94"/>
<rect x="44" y="84" width="4" height="4" fill="#E59C69"/>
<rect x="48" y="84" width="4" height="4" fill="#BE7B4F"/>
<rect x="52" y="84" width="4" height="4" fill="#523F1F"/>
<rect x="56" y="84" width="4" height="4" fill="#775029"/>
<rect x="60" y="84" width="4" height="4" fill="#885633"/>
<rect x="64" y="84" width="4" height="4" fill="#895837"/>
<rect x="68" y="84" width="4" height="4" fill="#775029"/>
<rect x="72" y="84" width="4" height="4" fill="#50401C"/>
<rect x="76" y="84" width="4" height="4" fill="#BF7B4E"/>
<rect x="80" y="84" width="4" height="4" fill="#E89A69"/>
<rect x="84" y="84" width="4" height="4" fill="#FFBC92"/>
<rect x="88" y="84" width="4" height="4" fill="#D58B5A"/>
<rect x="92" y="84" width="4" height="4" fill="#9C623A"/>
<rect x="96" y="84" width="4" height="4" fill="#B97047"/>
<rect x="100" y="84" width="4" height="4" fill="#765029"/>
<rect x="24" y="88" width="4" height="4" fill="#60441F"/>
<rect x="28" y="88" width="4" height="4" fill="#CB7F4E"/>
<rect x="32" y="88" width="4" height="4" fill="#99643C"/>
<rect x="36" y="88" width="4" height="4" fill="#E79B6A"/>
<rect x="40" y="88" width="4" height="4" fill="#F8AA79"/>
<rect x="44" y="88" width="4" height="4" fill="#CE8251"/>
<rect x="48" y="88" width="4" height="4" fill="#CF8352"/>
<rect x="52" y="88" width="4" height="4" fill="#D78B59"/>
<rect x="56" y="88" width="4" height="4" fill="#BF7B4C"/>
<rect x="60" y="88" width="4" height="4" fill="#A46B40"/>
<rect x="64" y="88" width="4" height="4" fill="#A56A40"/>
<rect x="68" y="88" width="4" height="4" fill="#C07B4A"/>
<rect x="72" y="88" width="4" height="4" fill="#D78B59"/>
<rect x="76" y="88" width="4" height="4" fill="#CF8352"/>
<rect x="80" y="88" width="4" height="4" fill="#CF8352"/>
<rect x="84" y="88" width="4" height="4" fill="#F7AB7A"/>
<rect x="88" y="88" width="4" height="4" fill="#E59A69"/>
<rect x="92" y="88" width="4" height="4" fill="#9B6139"/>
<rect x="96" y="88" width="4" height="4" fill="#C9804C"/>
<rect x="100" y="88" width="4" height="4" fill="#604323"/>
<rect x="24" y="92" width="4" height="4" fill="#563D1F"/>
<rect x="28" y="92" width="4" height="4" fill="#AB6E42"/>
<rect x="32" y="92" width="4" height="4" fill="#A26941"/>
<rect x="36" y="92" width="4" height="4" fill="#D68858"/>
<rect x="40" y="92" width="4" height="4" fill="#E89A6A"/>
<rect x="44" y="92" width="4" height="4" fill="#D08251"/>
<rect x="48" y="92" width="4" height="4" fill="#D58C59"/>
<rect x="52" y="92" width="4" height="4" fill="#F6AB7D"/>
<rect x="56" y="92" width="4" height="4" fill="#FFBF9B"/>
<rect x="60" y="92" width="4" height="4" fill="#DC9464"/>
<rect x="64" y="92" width="4" height="4" fill="#E19363"/>
<rect x="68" y="92" width="4" height="4" fill="#FFBF99"/>
<rect x="72" y="92" width="4" height="4" fill="#F8AA79"/>
<rect x="76" y="92" width="4" height="4" fill="#D88A59"/>
<rect x="80" y="92" width="4" height="4" fill="#D08252"/>
<rect x="84" y="92" width="4" height="4" fill="#E89A69"/>
<rect x="88" y="92" width="4" height="4" fill="#D78B5A"/>
<rect x="92" y="92" width="4" height="4" fill="#A46C3D"/>
<rect x="96" y="92" width="4" height="4" fill="#A77048"/>
<rect x="100" y="92" width="4" height="4" fill="#533E1F"/>
<rect x="28" y="96" width="4" height="4" fill="#885633"/>
<rect x="32" y="96" width="4" height="4" fill="#A96E42"/>
<rect x="36" y="96" width="4" height="4" fill="#CB7F4E"/>
<rect x="40" y="96" width="4" height="4" fill="#D78B5A"/>
<rect x="44" y="96" width="4" height="4" fill="#905F33"/>
<rect x="48" y="96" width="4" height="4" fill="#794F27"/>
<rect x="52" y="96" width="4" height="4" fill="#9A5C11"/>
<rect x="56" y="96" width="4" height="4" fill="#9B5B13"/>
<rect x="60" y="96" width="4" height="4" fill="#9D5B11"/>
<rect x="64" y="96" width="4" height="4" fill="#9D5A13"/>
<rect x="68" y="96" width="4" height="4" fill="#9C5A0E"/>
<rect x="72" y="96" width="4" height="4" fill="#9E5C0F"/>
<rect x="76" y="96" width="4" height="4" fill="#774F2B"/>
<rect x="80" y="96" width="4" height="4" fill="#8D6038"/>
<rect x="84" y="96" width="4" height="4" fill="#D78B5A"/>
<rect x="88" y="96" width="4" height="4" fill="#CB7D4C"/>
<rect x="92" y="96" width="4" height="4" fill="#AA6F45"/>
<rect x="96" y="96" width="4" height="4" fill="#845833"/>
<rect x="28" y="100" width="4" height="4" fill="#553D23"/>
<rect x="32" y="100" width="4" height="4" fill="#8E6038"/>
<rect x="36" y="100" width="4" height="4" fill="#B57247"/>
<rect x="40" y="100" width="4" height="4" fill="#C97F4E"/>
<rect x="44" y="100" width="4" height="4" fill="#C77D4E"/>
<rect x="48" y="100" width="4" height="4" fill="#CB7F4D"/>
<rect x="52" y="100" width="4" height="4" fill="#DA895A"/>
<rect x="56" y="100" width="4" height="4" fill="#E79B6D"/>
<rect x="60" y="100" width="4" height="4" fill="#FCA35F"/>
<rect x="64" y="100" width="4" height="4" fill="#FFA258"/>
<rect x="68" y="100" width="4" height="4" fill="#E79A6C"/>
<rect x="72" y="100" width="4" height="4" fill="#D58C57"/>
<rect x="76" y="100" width="4" height="4" fill="#C97F50"/>
<rect x="80" y="100" width="4" height="4" fill="#CB7F4E"/>
<rect x="84" y="100" width="4" height="4" fill="#CC7E4D"/>
<rect x="88" y="100" width="4" height="4" fill="#B57247"/>
<rect x="92" y="100" width="4" height="4" fill="#8F5F37"/>
<rect x="96" y="100" width="4" height="4" fill="#533D25"/>
<rect x="32" y="104" width="4" height="4" fill="#69472A"/>
<rect x="36" y="104" width="4" height="4" fill="#AA6F44"/>
<rect x="40" y="104" width="4" height="4" fill="#D08251"/>
<rect x="44" y="104" width="4" height="4" fill="#DF9362"/>
<rect x="48" y="104" width="4" height="4" fill="#CB7F4E"/>
<rect x="52" y="104" width="4" height="4" fill="#AD6E45"/>
<rect x="56" y="104" width="4" height="4" fill="#905F36"/>
<rect x="60" y="104" width="4" height="4" fill="#7E5230"/>
<rect x="64" y="104" width="4" height="4" fill="#7F532E"/>
<rect x="68" y="104" width="4" height="4" fill="#905F34"/>
<rect x="72" y="104" width="4" height="4" fill="#A97043"/>
<rect x="76" y="104" width="4" height="4" fill="#CB7F4E"/>
<rect x="80" y="104" width="4" height="4" fill="#DF9362"/>
<rect x="84" y="104" width="4" height="4" fill="#CD8353"/>
<rect x="88" y="104" width="4" height="4" fill="#AD6E45"/>
<rect x="92" y="104" width="4" height="4" fill="#6A4729"/>
<rect x="36" y="108" width="4" height="4" fill="#6D4627"/>
<rect x="40" y="108" width="4" height="4" fill="#AB7044"/>
<rect x="44" y="108" width="4" height="4" fill="#CE8251"/>
<rect x="48" y="108" width="4" height="4" fill="#DF9362"/>
<rect x="52" y="108" width="4" height="4" fill="#CB804F"/>
<rect x="56" y="108" width="4" height="4" fill="#CB7F4E"/>
<rect x="60" y="108" width="4" height="4" fill="#E79D6C"/>
<rect x="64" y="108" width="4" height="4" fill="#E89A6A"/>
<rect x="68" y="108" width="4" height="4" fill="#CB7F4E"/>
<rect x="72" y="108" width="4" height="4" fill="#CB7F4E"/>
<rect x="76" y="108" width="4" height="4" fill="#DF9362"/>
<rect x="80" y="108" width="4" height="4" fill="#CD8451"/>
<rect x="84" y="108" width="4" height="4" fill="#AD6E45"/>
<rect x="88" y="108" width="4" height="4" fill="#6E4629"/>
<rect x="40" y="112" width="4" height="4" fill="#523F20"/>
<rect x="44" y="112" width="4" height="4" fill="#885834"/>
<rect x="48" y="112" width="4" height="4" fill="#B57247"/>
<rect x="52" y="112" width="4" height="4" fill="#D78B5A"/>
<rect x="56" y="112" width="4" height="4" fill="#E89C6B"/>
<rect x="60" y="112" width="4" height="4" fill="#FFBF9B"/>
<rect x="64" y="112" width="4" height="4" fill="#FFBF9B"/>
<rect x="68" y="112" width="4" height="4" fill="#E79A6C"/>
<rect x="72" y="112" width="4" height="4" fill="#D58B5A"/>
<rect x="76" y="112" width="4" height="4" fill="#B57245"/>
<rect x="80" y="112" width="4" height="4" fill="#855733"/>
<rect x="84" y="112" width="4" height="4" fill="#523F1E"/>
<rect x="48" y="116" width="4" height="4" fill="#6B4727"/>
<rect x="52" y="116" width="4" height="4" fill="#8E6138"/>
<rect x="56" y="116" width="4" height="4" fill="#A46B40"/>
<rect x="60" y="116" width="4" height="4" fill="#A46B40"/>
<rect x="64" y="116" width="4" height="4" fill="#A56A40"/>
<rect x="68" y="116" width="4" height="4" fill="#A76A3E"/>
<rect x="72" y="116" width="4" height="4" fill="#8C5F38"/>
<rect x="76" y="116" width="4" height="4" fill="#66472A"/>
</svg>
