<svg width="32" height="32" viewBox="0 0 32 32" fill="none" xmlns="http://www.w3.org/2000/svg">
<rect x="9" y="1" width="1" height="1" fill="#4C381D"/>
<rect x="10" y="1" width="1" height="1" fill="#604325"/>
<rect x="11" y="1" width="1" height="1" fill="#604323"/>
<rect x="12" y="1" width="1" height="1" fill="#604323"/>
<rect x="13" y="1" width="1" height="1" fill="#6B4727"/>
<rect x="14" y="1" width="1" height="1" fill="#774F2B"/>
<rect x="15" y="1" width="1" height="1" fill="#774F2B"/>
<rect x="16" y="1" width="1" height="1" fill="#774F2C"/>
<rect x="17" y="1" width="1" height="1" fill="#774F2B"/>
<rect x="18" y="1" width="1" height="1" fill="#774F2B"/>
<rect x="19" y="1" width="1" height="1" fill="#6D4627"/>
<rect x="20" y="1" width="1" height="1" fill="#604323"/>
<rect x="21" y="1" width="1" height="1" fill="#6D4627"/>
<rect x="22" y="1" width="1" height="1" fill="#604323"/>
<rect x="7" y="2" width="1" height="1" fill="#332B16"/>
<rect x="8" y="2" width="1" height="1" fill="#614225"/>
<rect x="9" y="2" width="1" height="1" fill="#533E21"/>
<rect x="10" y="2" width="1" height="1" fill="#805231"/>
<rect x="11" y="2" width="1" height="1" fill="#8D6035"/>
<rect x="12" y="2" width="1" height="1" fill="#A96E44"/>
<rect x="13" y="2" width="1" height="1" fill="#BF7B4E"/>
<rect x="14" y="2" width="1" height="1" fill="#CD8451"/>
<rect x="15" y="2" width="1" height="1" fill="#CF8653"/>
<rect x="16" y="2" width="1" height="1" fill="#CD8354"/>
<rect x="17" y="2" width="1" height="1" fill="#BF7B4C"/>
<rect x="18" y="2" width="1" height="1" fill="#AC6D42"/>
<rect x="19" y="2" width="1" height="1" fill="#9C623D"/>
<rect x="20" y="2" width="1" height="1" fill="#76502C"/>
<rect x="21" y="2" width="1" height="1" fill="#5D4425"/>
<rect x="22" y="2" width="1" height="1" fill="#553E1E"/>
<rect x="23" y="2" width="1" height="1" fill="#604325"/>
<rect x="24" y="2" width="1" height="1" fill="#60441D"/>
<rect x="6" y="3" width="1" height="1" fill="#332C11"/>
<rect x="7" y="3" width="1" height="1" fill="#604323"/>
<rect x="8" y="3" width="1" height="1" fill="#774F2B"/>
<rect x="9" y="3" width="1" height="1" fill="#905F37"/>
<rect x="10" y="3" width="1" height="1" fill="#AD7044"/>
<rect x="11" y="3" width="1" height="1" fill="#BD7B49"/>
<rect x="12" y="3" width="1" height="1" fill="#BF7B4A"/>
<rect x="13" y="3" width="1" height="1" fill="#BE7C4C"/>
<rect x="14" y="3" width="1" height="1" fill="#BF7B4A"/>
<rect x="15" y="3" width="1" height="1" fill="#B37546"/>
<rect x="16" y="3" width="1" height="1" fill="#99643C"/>
<rect x="17" y="3" width="1" height="1" fill="#9C623C"/>
<rect x="18" y="3" width="1" height="1" fill="#99643A"/>
<rect x="19" y="3" width="1" height="1" fill="#905F36"/>
<rect x="20" y="3" width="1" height="1" fill="#8F5F37"/>
<rect x="21" y="3" width="1" height="1" fill="#774F2B"/>
<rect x="22" y="3" width="1" height="1" fill="#775029"/>
<rect x="23" y="3" width="1" height="1" fill="#533E1F"/>
<rect x="24" y="3" width="1" height="1" fill="#4B3619"/>
<rect x="25" y="3" width="1" height="1" fill="#332B14"/>
<rect x="6" y="4" width="1" height="1" fill="#322C14"/>
<rect x="7" y="4" width="1" height="1" fill="#7B4F2C"/>
<rect x="8" y="4" width="1" height="1" fill="#855733"/>
<rect x="9" y="4" width="1" height="1" fill="#774F2B"/>
<rect x="10" y="4" width="1" height="1" fill="#8D6037"/>
<rect x="11" y="4" width="1" height="1" fill="#9A633C"/>
<rect x="12" y="4" width="1" height="1" fill="#B57343"/>
<rect x="13" y="4" width="1" height="1" fill="#875733"/>
<rect x="14" y="4" width="1" height="1" fill="#AC6F43"/>
<rect x="15" y="4" width="1" height="1" fill="#8F5F39"/>
<rect x="16" y="4" width="1" height="1" fill="#A46C3D"/>
<rect x="17" y="4" width="1" height="1" fill="#764F2E"/>
<rect x="18" y="4" width="1" height="1" fill="#774F2B"/>
<rect x="19" y="4" width="1" height="1" fill="#794E2B"/>
<rect x="20" y="4" width="1" height="1" fill="#775029"/>
<rect x="21" y="4" width="1" height="1" fill="#604325"/>
<rect x="22" y="4" width="1" height="1" fill="#533F1E"/>
<rect x="23" y="4" width="1" height="1" fill="#332B14"/>
<rect x="24" y="4" width="1" height="1" fill="#332B16"/>
<rect x="25" y="4" width="1" height="1" fill="#2B2310"/>
<rect x="5" y="5" width="1" height="1" fill="#2B2310"/>
<rect x="6" y="5" width="1" height="1" fill="#3F2F16"/>
<rect x="7" y="5" width="1" height="1" fill="#604321"/>
<rect x="8" y="5" width="1" height="1" fill="#775029"/>
<rect x="9" y="5" width="1" height="1" fill="#5F4224"/>
<rect x="10" y="5" width="1" height="1" fill="#8F5D38"/>
<rect x="11" y="5" width="1" height="1" fill="#9B6237"/>
<rect x="12" y="5" width="1" height="1" fill="#8F5F37"/>
<rect x="13" y="5" width="1" height="1" fill="#8F6036"/>
<rect x="14" y="5" width="1" height="1" fill="#8F5F37"/>
<rect x="15" y="5" width="1" height="1" fill="#8F5F37"/>
<rect x="16" y="5" width="1" height="1" fill="#4B381A"/>
<rect x="17" y="5" width="1" height="1" fill="#8E5F35"/>
<rect x="18" y="5" width="1" height="1" fill="#604323"/>
<rect x="19" y="5" width="1" height="1" fill="#4B371C"/>
<rect x="20" y="5" width="1" height="1" fill="#624422"/>
<rect x="21" y="5" width="1" height="1" fill="#4C371A"/>
<rect x="22" y="5" width="1" height="1" fill="#322A13"/>
<rect x="23" y="5" width="1" height="1" fill="#2A220F"/>
<rect x="24" y="5" width="1" height="1" fill="#2C2310"/>
<rect x="25" y="5" width="1" height="1" fill="#29210E"/>
<rect x="26" y="5" width="1" height="1" fill="#2B2310"/>
<rect x="5" y="6" width="1" height="1" fill="#2D2111"/>
<rect x="6" y="6" width="1" height="1" fill="#3F2F16"/>
<rect x="7" y="6" width="1" height="1" fill="#4B381A"/>
<rect x="8" y="6" width="1" height="1" fill="#533E1F"/>
<rect x="9" y="6" width="1" height="1" fill="#604323"/>
<rect x="10" y="6" width="1" height="1" fill="#8D6037"/>
<rect x="11" y="6" width="1" height="1" fill="#523F1F"/>
<rect x="12" y="6" width="1" height="1" fill="#9C623C"/>
<rect x="13" y="6" width="1" height="1" fill="#6B4727"/>
<rect x="14" y="6" width="1" height="1" fill="#6B4727"/>
<rect x="15" y="6" width="1" height="1" fill="#905F36"/>
<rect x="16" y="6" width="1" height="1" fill="#6A4727"/>
<rect x="17" y="6" width="1" height="1" fill="#4B371C"/>
<rect x="18" y="6" width="1" height="1" fill="#6D4627"/>
<rect x="19" y="6" width="1" height="1" fill="#4B371C"/>
<rect x="20" y="6" width="1" height="1" fill="#3F2F16"/>
<rect x="21" y="6" width="1" height="1" fill="#5D4523"/>
<rect x="22" y="6" width="1" height="1" fill="#2D2210"/>
<rect x="23" y="6" width="1" height="1" fill="#332B14"/>
<rect x="24" y="6" width="1" height="1" fill="#332B14"/>
<rect x="25" y="6" width="1" height="1" fill="#3F2F16"/>
<rect x="26" y="6" width="1" height="1" fill="#2B2310"/>
<rect x="5" y="7" width="1" height="1" fill="#2B2211"/>
<rect x="6" y="7" width="1" height="1" fill="#4C371C"/>
<rect x="7" y="7" width="1" height="1" fill="#4A391B"/>
<rect x="8" y="7" width="1" height="1" fill="#744E29"/>
<rect x="9" y="7" width="1" height="1" fill="#754F2B"/>
<rect x="10" y="7" width="1" height="1" fill="#523F1E"/>
<rect x="11" y="7" width="1" height="1" fill="#905E39"/>
<rect x="12" y="7" width="1" height="1" fill="#533E1F"/>
<rect x="13" y="7" width="1" height="1" fill="#6B4725"/>
<rect x="14" y="7" width="1" height="1" fill="#774F2B"/>
<rect x="15" y="7" width="1" height="1" fill="#6D4625"/>
<rect x="16" y="7" width="1" height="1" fill="#6A4729"/>
<rect x="17" y="7" width="1" height="1" fill="#8F5F37"/>
<rect x="18" y="7" width="1" height="1" fill="#8E5E36"/>
<rect x="19" y="7" width="1" height="1" fill="#8D6037"/>
<rect x="20" y="7" width="1" height="1" fill="#875732"/>
<rect x="21" y="7" width="1" height="1" fill="#875733"/>
<rect x="22" y="7" width="1" height="1" fill="#6B4727"/>
<rect x="23" y="7" width="1" height="1" fill="#4B371F"/>
<rect x="24" y="7" width="1" height="1" fill="#3F2F15"/>
<rect x="25" y="7" width="1" height="1" fill="#4C371A"/>
<rect x="26" y="7" width="1" height="1" fill="#2B2310"/>
<rect x="5" y="8" width="1" height="1" fill="#2A2110"/>
<rect x="6" y="8" width="1" height="1" fill="#4B371C"/>
<rect x="7" y="8" width="1" height="1" fill="#513E1D"/>
<rect x="8" y="8" width="1" height="1" fill="#744E29"/>
<rect x="9" y="8" width="1" height="1" fill="#8F5F39"/>
<rect x="10" y="8" width="1" height="1" fill="#76502B"/>
<rect x="11" y="8" width="1" height="1" fill="#533E1F"/>
<rect x="12" y="8" width="1" height="1" fill="#A16C44"/>
<rect x="13" y="8" width="1" height="1" fill="#543D1B"/>
<rect x="14" y="8" width="1" height="1" fill="#764F2D"/>
<rect x="15" y="8" width="1" height="1" fill="#905E39"/>
<rect x="16" y="8" width="1" height="1" fill="#A36941"/>
<rect x="17" y="8" width="1" height="1" fill="#B47347"/>
<rect x="18" y="8" width="1" height="1" fill="#9A633C"/>
<rect x="19" y="8" width="1" height="1" fill="#A46A3F"/>
<rect x="20" y="8" width="1" height="1" fill="#8F5F37"/>
<rect x="21" y="8" width="1" height="1" fill="#905F37"/>
<rect x="22" y="8" width="1" height="1" fill="#90603A"/>
<rect x="23" y="8" width="1" height="1" fill="#6C4729"/>
<rect x="24" y="8" width="1" height="1" fill="#4C381D"/>
<rect x="25" y="8" width="1" height="1" fill="#4B371C"/>
<rect x="26" y="8" width="1" height="1" fill="#2B2310"/>
<rect x="5" y="9" width="1" height="1" fill="#2B2211"/>
<rect x="6" y="9" width="1" height="1" fill="#4B371C"/>
<rect x="7" y="9" width="1" height="1" fill="#634125"/>
<rect x="8" y="9" width="1" height="1" fill="#8D6037"/>
<rect x="9" y="9" width="1" height="1" fill="#AC6E45"/>
<rect x="10" y="9" width="1" height="1" fill="#B27347"/>
<rect x="11" y="9" width="1" height="1" fill="#A26A3B"/>
<rect x="12" y="9" width="1" height="1" fill="#A66B3F"/>
<rect x="13" y="9" width="1" height="1" fill="#B37346"/>
<rect x="14" y="9" width="1" height="1" fill="#B37347"/>
<rect x="15" y="9" width="1" height="1" fill="#B47144"/>
<rect x="16" y="9" width="1" height="1" fill="#B57247"/>
<rect x="17" y="9" width="1" height="1" fill="#B37347"/>
<rect x="18" y="9" width="1" height="1" fill="#B37344"/>
<rect x="19" y="9" width="1" height="1" fill="#A46A42"/>
<rect x="20" y="9" width="1" height="1" fill="#A46B40"/>
<rect x="21" y="9" width="1" height="1" fill="#B47246"/>
<rect x="22" y="9" width="1" height="1" fill="#AD6E43"/>
<rect x="23" y="9" width="1" height="1" fill="#916037"/>
<rect x="24" y="9" width="1" height="1" fill="#523F21"/>
<rect x="25" y="9" width="1" height="1" fill="#4B371C"/>
<rect x="26" y="9" width="1" height="1" fill="#2B2310"/>
<rect x="5" y="10" width="1" height="1" fill="#2B2211"/>
<rect x="6" y="10" width="1" height="1" fill="#4B351D"/>
<rect x="7" y="10" width="1" height="1" fill="#745129"/>
<rect x="8" y="10" width="1" height="1" fill="#9A633C"/>
<rect x="9" y="10" width="1" height="1" fill="#CF8352"/>
<rect x="10" y="10" width="1" height="1" fill="#CB7F4E"/>
<rect x="11" y="10" width="1" height="1" fill="#CC7E4E"/>
<rect x="12" y="10" width="1" height="1" fill="#B47448"/>
<rect x="13" y="10" width="1" height="1" fill="#A46B40"/>
<rect x="14" y="10" width="1" height="1" fill="#AC6F43"/>
<rect x="15" y="10" width="1" height="1" fill="#AA7042"/>
<rect x="16" y="10" width="1" height="1" fill="#AA6F43"/>
<rect x="17" y="10" width="1" height="1" fill="#AB6E42"/>
<rect x="18" y="10" width="1" height="1" fill="#A26C40"/>
<rect x="19" y="10" width="1" height="1" fill="#B27348"/>
<rect x="20" y="10" width="1" height="1" fill="#CB7F4D"/>
<rect x="21" y="10" width="1" height="1" fill="#CB7F4E"/>
<rect x="22" y="10" width="1" height="1" fill="#CF8254"/>
<rect x="23" y="10" width="1" height="1" fill="#9A623D"/>
<rect x="24" y="10" width="1" height="1" fill="#604321"/>
<rect x="25" y="10" width="1" height="1" fill="#4B371C"/>
<rect x="26" y="10" width="1" height="1" fill="#2B2310"/>
<rect x="5" y="11" width="1" height="1" fill="#2A2310"/>
<rect x="6" y="11" width="1" height="1" fill="#4B371C"/>
<rect x="7" y="11" width="1" height="1" fill="#76502B"/>
<rect x="8" y="11" width="1" height="1" fill="#99643C"/>
<rect x="9" y="11" width="1" height="1" fill="#CF8352"/>
<rect x="10" y="11" width="1" height="1" fill="#ECA271"/>
<rect x="11" y="11" width="1" height="1" fill="#E79B6A"/>
<rect x="12" y="11" width="1" height="1" fill="#CE8251"/>
<rect x="13" y="11" width="1" height="1" fill="#C17A4C"/>
<rect x="14" y="11" width="1" height="1" fill="#A46B40"/>
<rect x="15" y="11" width="1" height="1" fill="#8F5F37"/>
<rect x="16" y="11" width="1" height="1" fill="#8F5F37"/>
<rect x="17" y="11" width="1" height="1" fill="#A56A40"/>
<rect x="18" y="11" width="1" height="1" fill="#BE7C4C"/>
<rect x="19" y="11" width="1" height="1" fill="#CF8352"/>
<rect x="20" y="11" width="1" height="1" fill="#E79B6A"/>
<rect x="21" y="11" width="1" height="1" fill="#EFA372"/>
<rect x="22" y="11" width="1" height="1" fill="#CF8351"/>
<rect x="23" y="11" width="1" height="1" fill="#9C623C"/>
<rect x="24" y="11" width="1" height="1" fill="#775029"/>
<rect x="25" y="11" width="1" height="1" fill="#4B371C"/>
<rect x="26" y="11" width="1" height="1" fill="#2B2310"/>
<rect x="5" y="12" width="1" height="1" fill="#2A230E"/>
<rect x="6" y="12" width="1" height="1" fill="#4B371C"/>
<rect x="7" y="12" width="1" height="1" fill="#76502B"/>
<rect x="8" y="12" width="1" height="1" fill="#B57247"/>
<rect x="9" y="12" width="1" height="1" fill="#E89A69"/>
<rect x="10" y="12" width="1" height="1" fill="#FFBB94"/>
<rect x="11" y="12" width="1" height="1" fill="#FFBB94"/>
<rect x="12" y="12" width="1" height="1" fill="#E79B6A"/>
<rect x="13" y="12" width="1" height="1" fill="#E89867"/>
<rect x="14" y="12" width="1" height="1" fill="#D08251"/>
<rect x="15" y="12" width="1" height="1" fill="#D68858"/>
<rect x="16" y="12" width="1" height="1" fill="#D88A59"/>
<rect x="17" y="12" width="1" height="1" fill="#CF834F"/>
<rect x="18" y="12" width="1" height="1" fill="#E79B69"/>
<rect x="19" y="12" width="1" height="1" fill="#EA9A69"/>
<rect x="20" y="12" width="1" height="1" fill="#FCBB91"/>
<rect x="21" y="12" width="1" height="1" fill="#FFBB94"/>
<rect x="22" y="12" width="1" height="1" fill="#E89A6A"/>
<rect x="23" y="12" width="1" height="1" fill="#B67148"/>
<rect x="24" y="12" width="1" height="1" fill="#76502C"/>
<rect x="25" y="12" width="1" height="1" fill="#4B371C"/>
<rect x="26" y="12" width="1" height="1" fill="#2B2310"/>
<rect x="4" y="13" width="1" height="1" fill="#B5714E"/>
<rect x="5" y="13" width="1" height="1" fill="#6D4723"/>
<rect x="6" y="13" width="1" height="1" fill="#4C371A"/>
<rect x="7" y="13" width="1" height="1" fill="#76502C"/>
<rect x="8" y="13" width="1" height="1" fill="#6B4629"/>
<rect x="9" y="13" width="1" height="1" fill="#6D4627"/>
<rect x="10" y="13" width="1" height="1" fill="#554021"/>
<rect x="11" y="13" width="1" height="1" fill="#A16D45"/>
<rect x="12" y="13" width="1" height="1" fill="#E39767"/>
<rect x="13" y="13" width="1" height="1" fill="#B2744A"/>
<rect x="14" y="13" width="1" height="1" fill="#785029"/>
<rect x="15" y="13" width="1" height="1" fill="#B57245"/>
<rect x="16" y="13" width="1" height="1" fill="#B37248"/>
<rect x="17" y="13" width="1" height="1" fill="#775029"/>
<rect x="18" y="13" width="1" height="1" fill="#B37248"/>
<rect x="19" y="13" width="1" height="1" fill="#DF9361"/>
<rect x="20" y="13" width="1" height="1" fill="#A26B42"/>
<rect x="21" y="13" width="1" height="1" fill="#553E1F"/>
<rect x="22" y="13" width="1" height="1" fill="#694829"/>
<rect x="23" y="13" width="1" height="1" fill="#6D4625"/>
<rect x="24" y="13" width="1" height="1" fill="#794F28"/>
<rect x="25" y="13" width="1" height="1" fill="#4B371C"/>
<rect x="26" y="13" width="1" height="1" fill="#6C4826"/>
<rect x="27" y="13" width="1" height="1" fill="#AF744A"/>
<rect x="4" y="14" width="1" height="1" fill="#B57247"/>
<rect x="5" y="14" width="1" height="1" fill="#6B4727"/>
<rect x="6" y="14" width="1" height="1" fill="#463324"/>
<rect x="7" y="14" width="1" height="1" fill="#8F6036"/>
<rect x="8" y="14" width="1" height="1" fill="#A96F45"/>
<rect x="9" y="14" width="1" height="1" fill="#604325"/>
<rect x="10" y="14" width="1" height="1" fill="#402E16"/>
<rect x="11" y="14" width="1" height="1" fill="#3E3017"/>
<rect x="12" y="14" width="1" height="1" fill="#402F15"/>
<rect x="13" y="14" width="1" height="1" fill="#4A371F"/>
<rect x="14" y="14" width="1" height="1" fill="#402E16"/>
<rect x="15" y="14" width="1" height="1" fill="#8F5F37"/>
<rect x="16" y="14" width="1" height="1" fill="#905E39"/>
<rect x="17" y="14" width="1" height="1" fill="#3F2F16"/>
<rect x="18" y="14" width="1" height="1" fill="#4B371F"/>
<rect x="19" y="14" width="1" height="1" fill="#412F11"/>
<rect x="20" y="14" width="1" height="1" fill="#422E13"/>
<rect x="21" y="14" width="1" height="1" fill="#3F2F16"/>
<rect x="22" y="14" width="1" height="1" fill="#614321"/>
<rect x="23" y="14" width="1" height="1" fill="#A96F47"/>
<rect x="24" y="14" width="1" height="1" fill="#8F6032"/>
<rect x="25" y="14" width="1" height="1" fill="#443323"/>
<rect x="26" y="14" width="1" height="1" fill="#6B4727"/>
<rect x="27" y="14" width="1" height="1" fill="#B37343"/>
<rect x="4" y="15" width="1" height="1" fill="#90603A"/>
<rect x="5" y="15" width="1" height="1" fill="#6B4728"/>
<rect x="6" y="15" width="1" height="1" fill="#6B5033"/>
<rect x="7" y="15" width="1" height="1" fill="#B57549"/>
<rect x="8" y="15" width="1" height="1" fill="#774F2C"/>
<rect x="9" y="15" width="1" height="1" fill="#6C6B69"/>
<rect x="10" y="15" width="1" height="1" fill="#010002"/>
<rect x="11" y="15" width="1" height="1" fill="#69696B"/>
<rect x="12" y="15" width="1" height="1" fill="#3B3B3B"/>
<rect x="13" y="15" width="1" height="1" fill="black"/>
<rect x="14" y="15" width="1" height="1" fill="#533E21"/>
<rect x="15" y="15" width="1" height="1" fill="#D48C5A"/>
<rect x="16" y="15" width="1" height="1" fill="#D68B5A"/>
<rect x="17" y="15" width="1" height="1" fill="#4F3E22"/>
<rect x="18" y="15" width="1" height="1" fill="#000001"/>
<rect x="19" y="15" width="1" height="1" fill="#6B6A6F"/>
<rect x="20" y="15" width="1" height="1" fill="#030002"/>
<rect x="21" y="15" width="1" height="1" fill="#726869"/>
<rect x="22" y="15" width="1" height="1" fill="#B1B5B4"/>
<rect x="23" y="15" width="1" height="1" fill="#76502C"/>
<rect x="24" y="15" width="1" height="1" fill="#B8704A"/>
<rect x="25" y="15" width="1" height="1" fill="#695230"/>
<rect x="26" y="15" width="1" height="1" fill="#6D4627"/>
<rect x="27" y="15" width="1" height="1" fill="#8C6039"/>
<rect x="4" y="16" width="1" height="1" fill="#6B4727"/>
<rect x="5" y="16" width="1" height="1" fill="#604323"/>
<rect x="6" y="16" width="1" height="1" fill="#875635"/>
<rect x="7" y="16" width="1" height="1" fill="#B57549"/>
<rect x="8" y="16" width="1" height="1" fill="#8F5F37"/>
<rect x="9" y="16" width="1" height="1" fill="#AB6E42"/>
<rect x="10" y="16" width="1" height="1" fill="#EB9798"/>
<rect x="11" y="16" width="1" height="1" fill="#BB5755"/>
<rect x="12" y="16" width="1" height="1" fill="#6A4727"/>
<rect x="13" y="16" width="1" height="1" fill="#614225"/>
<rect x="14" y="16" width="1" height="1" fill="#8F6038"/>
<rect x="15" y="16" width="1" height="1" fill="#CC8551"/>
<rect x="16" y="16" width="1" height="1" fill="#E79B69"/>
<rect x="17" y="16" width="1" height="1" fill="#8F5F39"/>
<rect x="18" y="16" width="1" height="1" fill="#5E4325"/>
<rect x="19" y="16" width="1" height="1" fill="#6A4729"/>
<rect x="20" y="16" width="1" height="1" fill="#BC5654"/>
<rect x="21" y="16" width="1" height="1" fill="#EE9597"/>
<rect x="22" y="16" width="1" height="1" fill="#AA6F43"/>
<rect x="23" y="16" width="1" height="1" fill="#905E39"/>
<rect x="24" y="16" width="1" height="1" fill="#B57343"/>
<rect x="25" y="16" width="1" height="1" fill="#885834"/>
<rect x="26" y="16" width="1" height="1" fill="#5F4222"/>
<rect x="27" y="16" width="1" height="1" fill="#6C4828"/>
<rect x="4" y="17" width="1" height="1" fill="#885834"/>
<rect x="5" y="17" width="1" height="1" fill="#604325"/>
<rect x="6" y="17" width="1" height="1" fill="#885635"/>
<rect x="7" y="17" width="1" height="1" fill="#DE7C7D"/>
<rect x="8" y="17" width="1" height="1" fill="#D88A5A"/>
<rect x="9" y="17" width="1" height="1" fill="#C07C4D"/>
<rect x="10" y="17" width="1" height="1" fill="#AE7145"/>
<rect x="11" y="17" width="1" height="1" fill="#8E5F38"/>
<rect x="12" y="17" width="1" height="1" fill="#AD7044"/>
<rect x="13" y="17" width="1" height="1" fill="#C97D4C"/>
<rect x="14" y="17" width="1" height="1" fill="#D78B5A"/>
<rect x="15" y="17" width="1" height="1" fill="#FFA25C"/>
<rect x="16" y="17" width="1" height="1" fill="#FFB47B"/>
<rect x="17" y="17" width="1" height="1" fill="#D98B5A"/>
<rect x="18" y="17" width="1" height="1" fill="#C9804D"/>
<rect x="19" y="17" width="1" height="1" fill="#AC6F43"/>
<rect x="20" y="17" width="1" height="1" fill="#8F5F37"/>
<rect x="21" y="17" width="1" height="1" fill="#A97142"/>
<rect x="22" y="17" width="1" height="1" fill="#BF7B4C"/>
<rect x="23" y="17" width="1" height="1" fill="#D88A5C"/>
<rect x="24" y="17" width="1" height="1" fill="#DC7A79"/>
<rect x="25" y="17" width="1" height="1" fill="#875733"/>
<rect x="26" y="17" width="1" height="1" fill="#604323"/>
<rect x="27" y="17" width="1" height="1" fill="#875733"/>
<rect x="4" y="18" width="1" height="1" fill="#8F6036"/>
<rect x="5" y="18" width="1" height="1" fill="#61431F"/>
<rect x="6" y="18" width="1" height="1" fill="#8E5E36"/>
<rect x="7" y="18" width="1" height="1" fill="#CF8351"/>
<rect x="8" y="18" width="1" height="1" fill="#E09261"/>
<rect x="9" y="18" width="1" height="1" fill="#F0A375"/>
<rect x="10" y="18" width="1" height="1" fill="#DE9362"/>
<rect x="11" y="18" width="1" height="1" fill="#CA7E4D"/>
<rect x="12" y="18" width="1" height="1" fill="#FFA156"/>
<rect x="13" y="18" width="1" height="1" fill="#FDBC96"/>
<rect x="14" y="18" width="1" height="1" fill="#E79B6A"/>
<rect x="15" y="18" width="1" height="1" fill="#FDA45D"/>
<rect x="16" y="18" width="1" height="1" fill="#FFB379"/>
<rect x="17" y="18" width="1" height="1" fill="#E79B67"/>
<rect x="18" y="18" width="1" height="1" fill="#FFBB96"/>
<rect x="19" y="18" width="1" height="1" fill="#FBA55C"/>
<rect x="20" y="18" width="1" height="1" fill="#C97F50"/>
<rect x="21" y="18" width="1" height="1" fill="#DE9362"/>
<rect x="22" y="18" width="1" height="1" fill="#F0A272"/>
<rect x="23" y="18" width="1" height="1" fill="#DF9361"/>
<rect x="24" y="18" width="1" height="1" fill="#D28058"/>
<rect x="25" y="18" width="1" height="1" fill="#915F3A"/>
<rect x="26" y="18" width="1" height="1" fill="#604222"/>
<rect x="27" y="18" width="1" height="1" fill="#8F6036"/>
<rect x="5" y="19" width="1" height="1" fill="#604225"/>
<rect x="6" y="19" width="1" height="1" fill="#885633"/>
<rect x="7" y="19" width="1" height="1" fill="#A46B40"/>
<rect x="8" y="19" width="1" height="1" fill="#AD6E43"/>
<rect x="9" y="19" width="1" height="1" fill="#BF7B4C"/>
<rect x="10" y="19" width="1" height="1" fill="#D88A5A"/>
<rect x="11" y="19" width="1" height="1" fill="#FEA35B"/>
<rect x="12" y="19" width="1" height="1" fill="#FFC69D"/>
<rect x="13" y="19" width="1" height="1" fill="#E09261"/>
<rect x="14" y="19" width="1" height="1" fill="#DA895A"/>
<rect x="15" y="19" width="1" height="1" fill="#FEB37A"/>
<rect x="16" y="19" width="1" height="1" fill="#FDD9B7"/>
<rect x="17" y="19" width="1" height="1" fill="#D88B57"/>
<rect x="18" y="19" width="1" height="1" fill="#DD9362"/>
<rect x="19" y="19" width="1" height="1" fill="#FFC5A7"/>
<rect x="20" y="19" width="1" height="1" fill="#FFA35A"/>
<rect x="21" y="19" width="1" height="1" fill="#D58C57"/>
<rect x="22" y="19" width="1" height="1" fill="#C17A4C"/>
<rect x="23" y="19" width="1" height="1" fill="#AD6E43"/>
<rect x="24" y="19" width="1" height="1" fill="#A16C44"/>
<rect x="25" y="19" width="1" height="1" fill="#875733"/>
<rect x="26" y="19" width="1" height="1" fill="#604323"/>
<rect x="5" y="20" width="1" height="1" fill="#634221"/>
<rect x="6" y="20" width="1" height="1" fill="#794E2B"/>
<rect x="7" y="20" width="1" height="1" fill="#9C613B"/>
<rect x="8" y="20" width="1" height="1" fill="#A46A42"/>
<rect x="9" y="20" width="1" height="1" fill="#BE7B4E"/>
<rect x="10" y="20" width="1" height="1" fill="#EFA372"/>
<rect x="11" y="20" width="1" height="1" fill="#F7AB79"/>
<rect x="12" y="20" width="1" height="1" fill="#D5885A"/>
<rect x="13" y="20" width="1" height="1" fill="#AD6E42"/>
<rect x="14" y="20" width="1" height="1" fill="#9A633C"/>
<rect x="15" y="20" width="1" height="1" fill="#A08362"/>
<rect x="16" y="20" width="1" height="1" fill="#A08365"/>
<rect x="17" y="20" width="1" height="1" fill="#9A633C"/>
<rect x="18" y="20" width="1" height="1" fill="#B06D41"/>
<rect x="19" y="20" width="1" height="1" fill="#D78B5A"/>
<rect x="20" y="20" width="1" height="1" fill="#F8A97E"/>
<rect x="21" y="20" width="1" height="1" fill="#F0A36F"/>
<rect x="22" y="20" width="1" height="1" fill="#C17A4E"/>
<rect x="23" y="20" width="1" height="1" fill="#A56A40"/>
<rect x="24" y="20" width="1" height="1" fill="#98643F"/>
<rect x="25" y="20" width="1" height="1" fill="#774F2B"/>
<rect x="26" y="20" width="1" height="1" fill="#5F4423"/>
<rect x="6" y="21" width="1" height="1" fill="#7A4F28"/>
<rect x="7" y="21" width="1" height="1" fill="#B37345"/>
<rect x="8" y="21" width="1" height="1" fill="#9A633C"/>
<rect x="9" y="21" width="1" height="1" fill="#D78B5A"/>
<rect x="10" y="21" width="1" height="1" fill="#FFBB94"/>
<rect x="11" y="21" width="1" height="1" fill="#E59C69"/>
<rect x="12" y="21" width="1" height="1" fill="#BE7B4F"/>
<rect x="13" y="21" width="1" height="1" fill="#523F1F"/>
<rect x="14" y="21" width="1" height="1" fill="#775029"/>
<rect x="15" y="21" width="1" height="1" fill="#885633"/>
<rect x="16" y="21" width="1" height="1" fill="#895837"/>
<rect x="17" y="21" width="1" height="1" fill="#775029"/>
<rect x="18" y="21" width="1" height="1" fill="#50401C"/>
<rect x="19" y="21" width="1" height="1" fill="#BF7B4E"/>
<rect x="20" y="21" width="1" height="1" fill="#E89A69"/>
<rect x="21" y="21" width="1" height="1" fill="#FFBC92"/>
<rect x="22" y="21" width="1" height="1" fill="#D58B5A"/>
<rect x="23" y="21" width="1" height="1" fill="#9C623A"/>
<rect x="24" y="21" width="1" height="1" fill="#B97047"/>
<rect x="25" y="21" width="1" height="1" fill="#765029"/>
<rect x="6" y="22" width="1" height="1" fill="#60441F"/>
<rect x="7" y="22" width="1" height="1" fill="#CB7F4E"/>
<rect x="8" y="22" width="1" height="1" fill="#99643C"/>
<rect x="9" y="22" width="1" height="1" fill="#E79B6A"/>
<rect x="10" y="22" width="1" height="1" fill="#F8AA79"/>
<rect x="11" y="22" width="1" height="1" fill="#CE8251"/>
<rect x="12" y="22" width="1" height="1" fill="#CF8352"/>
<rect x="13" y="22" width="1" height="1" fill="#D78B59"/>
<rect x="14" y="22" width="1" height="1" fill="#BF7B4C"/>
<rect x="15" y="22" width="1" height="1" fill="#A46B40"/>
<rect x="16" y="22" width="1" height="1" fill="#A56A40"/>
<rect x="17" y="22" width="1" height="1" fill="#C07B4A"/>
<rect x="18" y="22" width="1" height="1" fill="#D78B59"/>
<rect x="19" y="22" width="1" height="1" fill="#CF8352"/>
<rect x="20" y="22" width="1" height="1" fill="#CF8352"/>
<rect x="21" y="22" width="1" height="1" fill="#F7AB7A"/>
<rect x="22" y="22" width="1" height="1" fill="#E59A69"/>
<rect x="23" y="22" width="1" height="1" fill="#9B6139"/>
<rect x="24" y="22" width="1" height="1" fill="#C9804C"/>
<rect x="25" y="22" width="1" height="1" fill="#604323"/>
<rect x="6" y="23" width="1" height="1" fill="#563D1F"/>
<rect x="7" y="23" width="1" height="1" fill="#AB6E42"/>
<rect x="8" y="23" width="1" height="1" fill="#A26941"/>
<rect x="9" y="23" width="1" height="1" fill="#D68858"/>
<rect x="10" y="23" width="1" height="1" fill="#E89A6A"/>
<rect x="11" y="23" width="1" height="1" fill="#D08251"/>
<rect x="12" y="23" width="1" height="1" fill="#D58C59"/>
<rect x="13" y="23" width="1" height="1" fill="#F6AB7D"/>
<rect x="14" y="23" width="1" height="1" fill="#FFBF9B"/>
<rect x="15" y="23" width="1" height="1" fill="#DC9464"/>
<rect x="16" y="23" width="1" height="1" fill="#E19363"/>
<rect x="17" y="23" width="1" height="1" fill="#FFBF99"/>
<rect x="18" y="23" width="1" height="1" fill="#F8AA79"/>
<rect x="19" y="23" width="1" height="1" fill="#D88A59"/>
<rect x="20" y="23" width="1" height="1" fill="#D08252"/>
<rect x="21" y="23" width="1" height="1" fill="#E89A69"/>
<rect x="22" y="23" width="1" height="1" fill="#D78B5A"/>
<rect x="23" y="23" width="1" height="1" fill="#A46C3D"/>
<rect x="24" y="23" width="1" height="1" fill="#A77048"/>
<rect x="25" y="23" width="1" height="1" fill="#533E1F"/>
<rect x="7" y="24" width="1" height="1" fill="#885633"/>
<rect x="8" y="24" width="1" height="1" fill="#A96E42"/>
<rect x="9" y="24" width="1" height="1" fill="#CB7F4E"/>
<rect x="10" y="24" width="1" height="1" fill="#D78B5A"/>
<rect x="11" y="24" width="1" height="1" fill="#905F33"/>
<rect x="12" y="24" width="1" height="1" fill="#794F27"/>
<rect x="13" y="24" width="1" height="1" fill="#9A5C11"/>
<rect x="14" y="24" width="1" height="1" fill="#9B5B13"/>
<rect x="15" y="24" width="1" height="1" fill="#9D5B11"/>
<rect x="16" y="24" width="1" height="1" fill="#9D5A13"/>
<rect x="17" y="24" width="1" height="1" fill="#9C5A0E"/>
<rect x="18" y="24" width="1" height="1" fill="#9E5C0F"/>
<rect x="19" y="24" width="1" height="1" fill="#774F2B"/>
<rect x="20" y="24" width="1" height="1" fill="#8D6038"/>
<rect x="21" y="24" width="1" height="1" fill="#D78B5A"/>
<rect x="22" y="24" width="1" height="1" fill="#CB7D4C"/>
<rect x="23" y="24" width="1" height="1" fill="#AA6F45"/>
<rect x="24" y="24" width="1" height="1" fill="#845833"/>
<rect x="7" y="25" width="1" height="1" fill="#553D23"/>
<rect x="8" y="25" width="1" height="1" fill="#8E6038"/>
<rect x="9" y="25" width="1" height="1" fill="#B57247"/>
<rect x="10" y="25" width="1" height="1" fill="#C97F4E"/>
<rect x="11" y="25" width="1" height="1" fill="#C77D4E"/>
<rect x="12" y="25" width="1" height="1" fill="#CB7F4D"/>
<rect x="13" y="25" width="1" height="1" fill="#DA895A"/>
<rect x="14" y="25" width="1" height="1" fill="#E79B6D"/>
<rect x="15" y="25" width="1" height="1" fill="#FCA35F"/>
<rect x="16" y="25" width="1" height="1" fill="#FFA258"/>
<rect x="17" y="25" width="1" height="1" fill="#E79A6C"/>
<rect x="18" y="25" width="1" height="1" fill="#D58C57"/>
<rect x="19" y="25" width="1" height="1" fill="#C97F50"/>
<rect x="20" y="25" width="1" height="1" fill="#CB7F4E"/>
<rect x="21" y="25" width="1" height="1" fill="#CC7E4D"/>
<rect x="22" y="25" width="1" height="1" fill="#B57247"/>
<rect x="23" y="25" width="1" height="1" fill="#8F5F37"/>
<rect x="24" y="25" width="1" height="1" fill="#533D25"/>
<rect x="8" y="26" width="1" height="1" fill="#69472A"/>
<rect x="9" y="26" width="1" height="1" fill="#AA6F44"/>
<rect x="10" y="26" width="1" height="1" fill="#D08251"/>
<rect x="11" y="26" width="1" height="1" fill="#DF9362"/>
<rect x="12" y="26" width="1" height="1" fill="#CB7F4E"/>
<rect x="13" y="26" width="1" height="1" fill="#AD6E45"/>
<rect x="14" y="26" width="1" height="1" fill="#905F36"/>
<rect x="15" y="26" width="1" height="1" fill="#7E5230"/>
<rect x="16" y="26" width="1" height="1" fill="#7F532E"/>
<rect x="17" y="26" width="1" height="1" fill="#905F34"/>
<rect x="18" y="26" width="1" height="1" fill="#A97043"/>
<rect x="19" y="26" width="1" height="1" fill="#CB7F4E"/>
<rect x="20" y="26" width="1" height="1" fill="#DF9362"/>
<rect x="21" y="26" width="1" height="1" fill="#CD8353"/>
<rect x="22" y="26" width="1" height="1" fill="#AD6E45"/>
<rect x="23" y="26" width="1" height="1" fill="#6A4729"/>
<rect x="9" y="27" width="1" height="1" fill="#6D4627"/>
<rect x="10" y="27" width="1" height="1" fill="#AB7044"/>
<rect x="11" y="27" width="1" height="1" fill="#CE8251"/>
<rect x="12" y="27" width="1" height="1" fill="#DF9362"/>
<rect x="13" y="27" width="1" height="1" fill="#CB804F"/>
<rect x="14" y="27" width="1" height="1" fill="#CB7F4E"/>
<rect x="15" y="27" width="1" height="1" fill="#E79D6C"/>
<rect x="16" y="27" width="1" height="1" fill="#E89A6A"/>
<rect x="17" y="27" width="1" height="1" fill="#CB7F4E"/>
<rect x="18" y="27" width="1" height="1" fill="#CB7F4E"/>
<rect x="19" y="27" width="1" height="1" fill="#DF9362"/>
<rect x="20" y="27" width="1" height="1" fill="#CD8451"/>
<rect x="21" y="27" width="1" height="1" fill="#AD6E45"/>
<rect x="22" y="27" width="1" height="1" fill="#6E4629"/>
<rect x="10" y="28" width="1" height="1" fill="#523F20"/>
<rect x="11" y="28" width="1" height="1" fill="#885834"/>
<rect x="12" y="28" width="1" height="1" fill="#B57247"/>
<rect x="13" y="28" width="1" height="1" fill="#D78B5A"/>
<rect x="14" y="28" width="1" height="1" fill="#E89C6B"/>
<rect x="15" y="28" width="1" height="1" fill="#FFBF9B"/>
<rect x="16" y="28" width="1" height="1" fill="#FFBF9B"/>
<rect x="17" y="28" width="1" height="1" fill="#E79A6C"/>
<rect x="18" y="28" width="1" height="1" fill="#D58B5A"/>
<rect x="19" y="28" width="1" height="1" fill="#B57245"/>
<rect x="20" y="28" width="1" height="1" fill="#855733"/>
<rect x="21" y="28" width="1" height="1" fill="#523F1E"/>
<rect x="12" y="29" width="1" height="1" fill="#6B4727"/>
<rect x="13" y="29" width="1" height="1" fill="#8E6138"/>
<rect x="14" y="29" width="1" height="1" fill="#A46B40"/>
<rect x="15" y="29" width="1" height="1" fill="#A46B40"/>
<rect x="16" y="29" width="1" height="1" fill="#A56A40"/>
<rect x="17" y="29" width="1" height="1" fill="#A76A3E"/>
<rect x="18" y="29" width="1" height="1" fill="#8C5F38"/>
<rect x="19" y="29" width="1" height="1" fill="#66472A"/>
</svg>
