<svg width="48" height="48" viewBox="0 0 48 48" fill="none" xmlns="http://www.w3.org/2000/svg">
<rect x="13.5" y="1.5" width="1.5" height="1.5" fill="#4C381D"/>
<rect x="15" y="1.5" width="1.5" height="1.5" fill="#604325"/>
<rect x="16.5" y="1.5" width="1.5" height="1.5" fill="#604323"/>
<rect x="18" y="1.5" width="1.5" height="1.5" fill="#604323"/>
<rect x="19.5" y="1.5" width="1.5" height="1.5" fill="#6B4727"/>
<rect x="21" y="1.5" width="1.5" height="1.5" fill="#774F2B"/>
<rect x="22.5" y="1.5" width="1.5" height="1.5" fill="#774F2B"/>
<rect x="24" y="1.5" width="1.5" height="1.5" fill="#774F2C"/>
<rect x="25.5" y="1.5" width="1.5" height="1.5" fill="#774F2B"/>
<rect x="27" y="1.5" width="1.5" height="1.5" fill="#774F2B"/>
<rect x="28.5" y="1.5" width="1.5" height="1.5" fill="#6D4627"/>
<rect x="30" y="1.5" width="1.5" height="1.5" fill="#604323"/>
<rect x="31.5" y="1.5" width="1.5" height="1.5" fill="#6D4627"/>
<rect x="33" y="1.5" width="1.5" height="1.5" fill="#604323"/>
<rect x="10.5" y="3" width="1.5" height="1.5" fill="#332B16"/>
<rect x="12" y="3" width="1.5" height="1.5" fill="#614225"/>
<rect x="13.5" y="3" width="1.5" height="1.5" fill="#533E21"/>
<rect x="15" y="3" width="1.5" height="1.5" fill="#805231"/>
<rect x="16.5" y="3" width="1.5" height="1.5" fill="#8D6035"/>
<rect x="18" y="3" width="1.5" height="1.5" fill="#A96E44"/>
<rect x="19.5" y="3" width="1.5" height="1.5" fill="#BF7B4E"/>
<rect x="21" y="3" width="1.5" height="1.5" fill="#CD8451"/>
<rect x="22.5" y="3" width="1.5" height="1.5" fill="#CF8653"/>
<rect x="24" y="3" width="1.5" height="1.5" fill="#CD8354"/>
<rect x="25.5" y="3" width="1.5" height="1.5" fill="#BF7B4C"/>
<rect x="27" y="3" width="1.5" height="1.5" fill="#AC6D42"/>
<rect x="28.5" y="3" width="1.5" height="1.5" fill="#9C623D"/>
<rect x="30" y="3" width="1.5" height="1.5" fill="#76502C"/>
<rect x="31.5" y="3" width="1.5" height="1.5" fill="#5D4425"/>
<rect x="33" y="3" width="1.5" height="1.5" fill="#553E1E"/>
<rect x="34.5" y="3" width="1.5" height="1.5" fill="#604325"/>
<rect x="36" y="3" width="1.5" height="1.5" fill="#60441D"/>
<rect x="9" y="4.5" width="1.5" height="1.5" fill="#332C11"/>
<rect x="10.5" y="4.5" width="1.5" height="1.5" fill="#604323"/>
<rect x="12" y="4.5" width="1.5" height="1.5" fill="#774F2B"/>
<rect x="13.5" y="4.5" width="1.5" height="1.5" fill="#905F37"/>
<rect x="15" y="4.5" width="1.5" height="1.5" fill="#AD7044"/>
<rect x="16.5" y="4.5" width="1.5" height="1.5" fill="#BD7B49"/>
<rect x="18" y="4.5" width="1.5" height="1.5" fill="#BF7B4A"/>
<rect x="19.5" y="4.5" width="1.5" height="1.5" fill="#BE7C4C"/>
<rect x="21" y="4.5" width="1.5" height="1.5" fill="#BF7B4A"/>
<rect x="22.5" y="4.5" width="1.5" height="1.5" fill="#B37546"/>
<rect x="24" y="4.5" width="1.5" height="1.5" fill="#99643C"/>
<rect x="25.5" y="4.5" width="1.5" height="1.5" fill="#9C623C"/>
<rect x="27" y="4.5" width="1.5" height="1.5" fill="#99643A"/>
<rect x="28.5" y="4.5" width="1.5" height="1.5" fill="#905F36"/>
<rect x="30" y="4.5" width="1.5" height="1.5" fill="#8F5F37"/>
<rect x="31.5" y="4.5" width="1.5" height="1.5" fill="#774F2B"/>
<rect x="33" y="4.5" width="1.5" height="1.5" fill="#775029"/>
<rect x="34.5" y="4.5" width="1.5" height="1.5" fill="#533E1F"/>
<rect x="36" y="4.5" width="1.5" height="1.5" fill="#4B3619"/>
<rect x="37.5" y="4.5" width="1.5" height="1.5" fill="#332B14"/>
<rect x="9" y="6" width="1.5" height="1.5" fill="#322C14"/>
<rect x="10.5" y="6" width="1.5" height="1.5" fill="#7B4F2C"/>
<rect x="12" y="6" width="1.5" height="1.5" fill="#855733"/>
<rect x="13.5" y="6" width="1.5" height="1.5" fill="#774F2B"/>
<rect x="15" y="6" width="1.5" height="1.5" fill="#8D6037"/>
<rect x="16.5" y="6" width="1.5" height="1.5" fill="#9A633C"/>
<rect x="18" y="6" width="1.5" height="1.5" fill="#B57343"/>
<rect x="19.5" y="6" width="1.5" height="1.5" fill="#875733"/>
<rect x="21" y="6" width="1.5" height="1.5" fill="#AC6F43"/>
<rect x="22.5" y="6" width="1.5" height="1.5" fill="#8F5F39"/>
<rect x="24" y="6" width="1.5" height="1.5" fill="#A46C3D"/>
<rect x="25.5" y="6" width="1.5" height="1.5" fill="#764F2E"/>
<rect x="27" y="6" width="1.5" height="1.5" fill="#774F2B"/>
<rect x="28.5" y="6" width="1.5" height="1.5" fill="#794E2B"/>
<rect x="30" y="6" width="1.5" height="1.5" fill="#775029"/>
<rect x="31.5" y="6" width="1.5" height="1.5" fill="#604325"/>
<rect x="33" y="6" width="1.5" height="1.5" fill="#533F1E"/>
<rect x="34.5" y="6" width="1.5" height="1.5" fill="#332B14"/>
<rect x="36" y="6" width="1.5" height="1.5" fill="#332B16"/>
<rect x="37.5" y="6" width="1.5" height="1.5" fill="#2B2310"/>
<rect x="7.5" y="7.5" width="1.5" height="1.5" fill="#2B2310"/>
<rect x="9" y="7.5" width="1.5" height="1.5" fill="#3F2F16"/>
<rect x="10.5" y="7.5" width="1.5" height="1.5" fill="#604321"/>
<rect x="12" y="7.5" width="1.5" height="1.5" fill="#775029"/>
<rect x="13.5" y="7.5" width="1.5" height="1.5" fill="#5F4224"/>
<rect x="15" y="7.5" width="1.5" height="1.5" fill="#8F5D38"/>
<rect x="16.5" y="7.5" width="1.5" height="1.5" fill="#9B6237"/>
<rect x="18" y="7.5" width="1.5" height="1.5" fill="#8F5F37"/>
<rect x="19.5" y="7.5" width="1.5" height="1.5" fill="#8F6036"/>
<rect x="21" y="7.5" width="1.5" height="1.5" fill="#8F5F37"/>
<rect x="22.5" y="7.5" width="1.5" height="1.5" fill="#8F5F37"/>
<rect x="24" y="7.5" width="1.5" height="1.5" fill="#4B381A"/>
<rect x="25.5" y="7.5" width="1.5" height="1.5" fill="#8E5F35"/>
<rect x="27" y="7.5" width="1.5" height="1.5" fill="#604323"/>
<rect x="28.5" y="7.5" width="1.5" height="1.5" fill="#4B371C"/>
<rect x="30" y="7.5" width="1.5" height="1.5" fill="#624422"/>
<rect x="31.5" y="7.5" width="1.5" height="1.5" fill="#4C371A"/>
<rect x="33" y="7.5" width="1.5" height="1.5" fill="#322A13"/>
<rect x="34.5" y="7.5" width="1.5" height="1.5" fill="#2A220F"/>
<rect x="36" y="7.5" width="1.5" height="1.5" fill="#2C2310"/>
<rect x="37.5" y="7.5" width="1.5" height="1.5" fill="#29210E"/>
<rect x="39" y="7.5" width="1.5" height="1.5" fill="#2B2310"/>
<rect x="7.5" y="9" width="1.5" height="1.5" fill="#2D2111"/>
<rect x="9" y="9" width="1.5" height="1.5" fill="#3F2F16"/>
<rect x="10.5" y="9" width="1.5" height="1.5" fill="#4B381A"/>
<rect x="12" y="9" width="1.5" height="1.5" fill="#533E1F"/>
<rect x="13.5" y="9" width="1.5" height="1.5" fill="#604323"/>
<rect x="15" y="9" width="1.5" height="1.5" fill="#8D6037"/>
<rect x="16.5" y="9" width="1.5" height="1.5" fill="#523F1F"/>
<rect x="18" y="9" width="1.5" height="1.5" fill="#9C623C"/>
<rect x="19.5" y="9" width="1.5" height="1.5" fill="#6B4727"/>
<rect x="21" y="9" width="1.5" height="1.5" fill="#6B4727"/>
<rect x="22.5" y="9" width="1.5" height="1.5" fill="#905F36"/>
<rect x="24" y="9" width="1.5" height="1.5" fill="#6A4727"/>
<rect x="25.5" y="9" width="1.5" height="1.5" fill="#4B371C"/>
<rect x="27" y="9" width="1.5" height="1.5" fill="#6D4627"/>
<rect x="28.5" y="9" width="1.5" height="1.5" fill="#4B371C"/>
<rect x="30" y="9" width="1.5" height="1.5" fill="#3F2F16"/>
<rect x="31.5" y="9" width="1.5" height="1.5" fill="#5D4523"/>
<rect x="33" y="9" width="1.5" height="1.5" fill="#2D2210"/>
<rect x="34.5" y="9" width="1.5" height="1.5" fill="#332B14"/>
<rect x="36" y="9" width="1.5" height="1.5" fill="#332B14"/>
<rect x="37.5" y="9" width="1.5" height="1.5" fill="#3F2F16"/>
<rect x="39" y="9" width="1.5" height="1.5" fill="#2B2310"/>
<rect x="7.5" y="10.5" width="1.5" height="1.5" fill="#2B2211"/>
<rect x="9" y="10.5" width="1.5" height="1.5" fill="#4C371C"/>
<rect x="10.5" y="10.5" width="1.5" height="1.5" fill="#4A391B"/>
<rect x="12" y="10.5" width="1.5" height="1.5" fill="#744E29"/>
<rect x="13.5" y="10.5" width="1.5" height="1.5" fill="#754F2B"/>
<rect x="15" y="10.5" width="1.5" height="1.5" fill="#523F1E"/>
<rect x="16.5" y="10.5" width="1.5" height="1.5" fill="#905E39"/>
<rect x="18" y="10.5" width="1.5" height="1.5" fill="#533E1F"/>
<rect x="19.5" y="10.5" width="1.5" height="1.5" fill="#6B4725"/>
<rect x="21" y="10.5" width="1.5" height="1.5" fill="#774F2B"/>
<rect x="22.5" y="10.5" width="1.5" height="1.5" fill="#6D4625"/>
<rect x="24" y="10.5" width="1.5" height="1.5" fill="#6A4729"/>
<rect x="25.5" y="10.5" width="1.5" height="1.5" fill="#8F5F37"/>
<rect x="27" y="10.5" width="1.5" height="1.5" fill="#8E5E36"/>
<rect x="28.5" y="10.5" width="1.5" height="1.5" fill="#8D6037"/>
<rect x="30" y="10.5" width="1.5" height="1.5" fill="#875732"/>
<rect x="31.5" y="10.5" width="1.5" height="1.5" fill="#875733"/>
<rect x="33" y="10.5" width="1.5" height="1.5" fill="#6B4727"/>
<rect x="34.5" y="10.5" width="1.5" height="1.5" fill="#4B371F"/>
<rect x="36" y="10.5" width="1.5" height="1.5" fill="#3F2F15"/>
<rect x="37.5" y="10.5" width="1.5" height="1.5" fill="#4C371A"/>
<rect x="39" y="10.5" width="1.5" height="1.5" fill="#2B2310"/>
<rect x="7.5" y="12" width="1.5" height="1.5" fill="#2A2110"/>
<rect x="9" y="12" width="1.5" height="1.5" fill="#4B371C"/>
<rect x="10.5" y="12" width="1.5" height="1.5" fill="#513E1D"/>
<rect x="12" y="12" width="1.5" height="1.5" fill="#744E29"/>
<rect x="13.5" y="12" width="1.5" height="1.5" fill="#8F5F39"/>
<rect x="15" y="12" width="1.5" height="1.5" fill="#76502B"/>
<rect x="16.5" y="12" width="1.5" height="1.5" fill="#533E1F"/>
<rect x="18" y="12" width="1.5" height="1.5" fill="#A16C44"/>
<rect x="19.5" y="12" width="1.5" height="1.5" fill="#543D1B"/>
<rect x="21" y="12" width="1.5" height="1.5" fill="#764F2D"/>
<rect x="22.5" y="12" width="1.5" height="1.5" fill="#905E39"/>
<rect x="24" y="12" width="1.5" height="1.5" fill="#A36941"/>
<rect x="25.5" y="12" width="1.5" height="1.5" fill="#B47347"/>
<rect x="27" y="12" width="1.5" height="1.5" fill="#9A633C"/>
<rect x="28.5" y="12" width="1.5" height="1.5" fill="#A46A3F"/>
<rect x="30" y="12" width="1.5" height="1.5" fill="#8F5F37"/>
<rect x="31.5" y="12" width="1.5" height="1.5" fill="#905F37"/>
<rect x="33" y="12" width="1.5" height="1.5" fill="#90603A"/>
<rect x="34.5" y="12" width="1.5" height="1.5" fill="#6C4729"/>
<rect x="36" y="12" width="1.5" height="1.5" fill="#4C381D"/>
<rect x="37.5" y="12" width="1.5" height="1.5" fill="#4B371C"/>
<rect x="39" y="12" width="1.5" height="1.5" fill="#2B2310"/>
<rect x="7.5" y="13.5" width="1.5" height="1.5" fill="#2B2211"/>
<rect x="9" y="13.5" width="1.5" height="1.5" fill="#4B371C"/>
<rect x="10.5" y="13.5" width="1.5" height="1.5" fill="#634125"/>
<rect x="12" y="13.5" width="1.5" height="1.5" fill="#8D6037"/>
<rect x="13.5" y="13.5" width="1.5" height="1.5" fill="#AC6E45"/>
<rect x="15" y="13.5" width="1.5" height="1.5" fill="#B27347"/>
<rect x="16.5" y="13.5" width="1.5" height="1.5" fill="#A26A3B"/>
<rect x="18" y="13.5" width="1.5" height="1.5" fill="#A66B3F"/>
<rect x="19.5" y="13.5" width="1.5" height="1.5" fill="#B37346"/>
<rect x="21" y="13.5" width="1.5" height="1.5" fill="#B37347"/>
<rect x="22.5" y="13.5" width="1.5" height="1.5" fill="#B47144"/>
<rect x="24" y="13.5" width="1.5" height="1.5" fill="#B57247"/>
<rect x="25.5" y="13.5" width="1.5" height="1.5" fill="#B37347"/>
<rect x="27" y="13.5" width="1.5" height="1.5" fill="#B37344"/>
<rect x="28.5" y="13.5" width="1.5" height="1.5" fill="#A46A42"/>
<rect x="30" y="13.5" width="1.5" height="1.5" fill="#A46B40"/>
<rect x="31.5" y="13.5" width="1.5" height="1.5" fill="#B47246"/>
<rect x="33" y="13.5" width="1.5" height="1.5" fill="#AD6E43"/>
<rect x="34.5" y="13.5" width="1.5" height="1.5" fill="#916037"/>
<rect x="36" y="13.5" width="1.5" height="1.5" fill="#523F21"/>
<rect x="37.5" y="13.5" width="1.5" height="1.5" fill="#4B371C"/>
<rect x="39" y="13.5" width="1.5" height="1.5" fill="#2B2310"/>
<rect x="7.5" y="15" width="1.5" height="1.5" fill="#2B2211"/>
<rect x="9" y="15" width="1.5" height="1.5" fill="#4B351D"/>
<rect x="10.5" y="15" width="1.5" height="1.5" fill="#745129"/>
<rect x="12" y="15" width="1.5" height="1.5" fill="#9A633C"/>
<rect x="13.5" y="15" width="1.5" height="1.5" fill="#CF8352"/>
<rect x="15" y="15" width="1.5" height="1.5" fill="#CB7F4E"/>
<rect x="16.5" y="15" width="1.5" height="1.5" fill="#CC7E4E"/>
<rect x="18" y="15" width="1.5" height="1.5" fill="#B47448"/>
<rect x="19.5" y="15" width="1.5" height="1.5" fill="#A46B40"/>
<rect x="21" y="15" width="1.5" height="1.5" fill="#AC6F43"/>
<rect x="22.5" y="15" width="1.5" height="1.5" fill="#AA7042"/>
<rect x="24" y="15" width="1.5" height="1.5" fill="#AA6F43"/>
<rect x="25.5" y="15" width="1.5" height="1.5" fill="#AB6E42"/>
<rect x="27" y="15" width="1.5" height="1.5" fill="#A26C40"/>
<rect x="28.5" y="15" width="1.5" height="1.5" fill="#B27348"/>
<rect x="30" y="15" width="1.5" height="1.5" fill="#CB7F4D"/>
<rect x="31.5" y="15" width="1.5" height="1.5" fill="#CB7F4E"/>
<rect x="33" y="15" width="1.5" height="1.5" fill="#CF8254"/>
<rect x="34.5" y="15" width="1.5" height="1.5" fill="#9A623D"/>
<rect x="36" y="15" width="1.5" height="1.5" fill="#604321"/>
<rect x="37.5" y="15" width="1.5" height="1.5" fill="#4B371C"/>
<rect x="39" y="15" width="1.5" height="1.5" fill="#2B2310"/>
<rect x="7.5" y="16.5" width="1.5" height="1.5" fill="#2A2310"/>
<rect x="9" y="16.5" width="1.5" height="1.5" fill="#4B371C"/>
<rect x="10.5" y="16.5" width="1.5" height="1.5" fill="#76502B"/>
<rect x="12" y="16.5" width="1.5" height="1.5" fill="#99643C"/>
<rect x="13.5" y="16.5" width="1.5" height="1.5" fill="#CF8352"/>
<rect x="15" y="16.5" width="1.5" height="1.5" fill="#ECA271"/>
<rect x="16.5" y="16.5" width="1.5" height="1.5" fill="#E79B6A"/>
<rect x="18" y="16.5" width="1.5" height="1.5" fill="#CE8251"/>
<rect x="19.5" y="16.5" width="1.5" height="1.5" fill="#C17A4C"/>
<rect x="21" y="16.5" width="1.5" height="1.5" fill="#A46B40"/>
<rect x="22.5" y="16.5" width="1.5" height="1.5" fill="#8F5F37"/>
<rect x="24" y="16.5" width="1.5" height="1.5" fill="#8F5F37"/>
<rect x="25.5" y="16.5" width="1.5" height="1.5" fill="#A56A40"/>
<rect x="27" y="16.5" width="1.5" height="1.5" fill="#BE7C4C"/>
<rect x="28.5" y="16.5" width="1.5" height="1.5" fill="#CF8352"/>
<rect x="30" y="16.5" width="1.5" height="1.5" fill="#E79B6A"/>
<rect x="31.5" y="16.5" width="1.5" height="1.5" fill="#EFA372"/>
<rect x="33" y="16.5" width="1.5" height="1.5" fill="#CF8351"/>
<rect x="34.5" y="16.5" width="1.5" height="1.5" fill="#9C623C"/>
<rect x="36" y="16.5" width="1.5" height="1.5" fill="#775029"/>
<rect x="37.5" y="16.5" width="1.5" height="1.5" fill="#4B371C"/>
<rect x="39" y="16.5" width="1.5" height="1.5" fill="#2B2310"/>
<rect x="7.5" y="18" width="1.5" height="1.5" fill="#2A230E"/>
<rect x="9" y="18" width="1.5" height="1.5" fill="#4B371C"/>
<rect x="10.5" y="18" width="1.5" height="1.5" fill="#76502B"/>
<rect x="12" y="18" width="1.5" height="1.5" fill="#B57247"/>
<rect x="13.5" y="18" width="1.5" height="1.5" fill="#E89A69"/>
<rect x="15" y="18" width="1.5" height="1.5" fill="#FFBB94"/>
<rect x="16.5" y="18" width="1.5" height="1.5" fill="#FFBB94"/>
<rect x="18" y="18" width="1.5" height="1.5" fill="#E79B6A"/>
<rect x="19.5" y="18" width="1.5" height="1.5" fill="#E89867"/>
<rect x="21" y="18" width="1.5" height="1.5" fill="#D08251"/>
<rect x="22.5" y="18" width="1.5" height="1.5" fill="#D68858"/>
<rect x="24" y="18" width="1.5" height="1.5" fill="#D88A59"/>
<rect x="25.5" y="18" width="1.5" height="1.5" fill="#CF834F"/>
<rect x="27" y="18" width="1.5" height="1.5" fill="#E79B69"/>
<rect x="28.5" y="18" width="1.5" height="1.5" fill="#EA9A69"/>
<rect x="30" y="18" width="1.5" height="1.5" fill="#FCBB91"/>
<rect x="31.5" y="18" width="1.5" height="1.5" fill="#FFBB94"/>
<rect x="33" y="18" width="1.5" height="1.5" fill="#E89A6A"/>
<rect x="34.5" y="18" width="1.5" height="1.5" fill="#B67148"/>
<rect x="36" y="18" width="1.5" height="1.5" fill="#76502C"/>
<rect x="37.5" y="18" width="1.5" height="1.5" fill="#4B371C"/>
<rect x="39" y="18" width="1.5" height="1.5" fill="#2B2310"/>
<rect x="6" y="19.5" width="1.5" height="1.5" fill="#B5714E"/>
<rect x="7.5" y="19.5" width="1.5" height="1.5" fill="#6D4723"/>
<rect x="9" y="19.5" width="1.5" height="1.5" fill="#4C371A"/>
<rect x="10.5" y="19.5" width="1.5" height="1.5" fill="#76502C"/>
<rect x="12" y="19.5" width="1.5" height="1.5" fill="#6B4629"/>
<rect x="13.5" y="19.5" width="1.5" height="1.5" fill="#6D4627"/>
<rect x="15" y="19.5" width="1.5" height="1.5" fill="#554021"/>
<rect x="16.5" y="19.5" width="1.5" height="1.5" fill="#A16D45"/>
<rect x="18" y="19.5" width="1.5" height="1.5" fill="#E39767"/>
<rect x="19.5" y="19.5" width="1.5" height="1.5" fill="#B2744A"/>
<rect x="21" y="19.5" width="1.5" height="1.5" fill="#785029"/>
<rect x="22.5" y="19.5" width="1.5" height="1.5" fill="#B57245"/>
<rect x="24" y="19.5" width="1.5" height="1.5" fill="#B37248"/>
<rect x="25.5" y="19.5" width="1.5" height="1.5" fill="#775029"/>
<rect x="27" y="19.5" width="1.5" height="1.5" fill="#B37248"/>
<rect x="28.5" y="19.5" width="1.5" height="1.5" fill="#DF9361"/>
<rect x="30" y="19.5" width="1.5" height="1.5" fill="#A26B42"/>
<rect x="31.5" y="19.5" width="1.5" height="1.5" fill="#553E1F"/>
<rect x="33" y="19.5" width="1.5" height="1.5" fill="#694829"/>
<rect x="34.5" y="19.5" width="1.5" height="1.5" fill="#6D4625"/>
<rect x="36" y="19.5" width="1.5" height="1.5" fill="#794F28"/>
<rect x="37.5" y="19.5" width="1.5" height="1.5" fill="#4B371C"/>
<rect x="39" y="19.5" width="1.5" height="1.5" fill="#6C4826"/>
<rect x="40.5" y="19.5" width="1.5" height="1.5" fill="#AF744A"/>
<rect x="6" y="21" width="1.5" height="1.5" fill="#B57247"/>
<rect x="7.5" y="21" width="1.5" height="1.5" fill="#6B4727"/>
<rect x="9" y="21" width="1.5" height="1.5" fill="#463324"/>
<rect x="10.5" y="21" width="1.5" height="1.5" fill="#8F6036"/>
<rect x="12" y="21" width="1.5" height="1.5" fill="#A96F45"/>
<rect x="13.5" y="21" width="1.5" height="1.5" fill="#604325"/>
<rect x="15" y="21" width="1.5" height="1.5" fill="#402E16"/>
<rect x="16.5" y="21" width="1.5" height="1.5" fill="#3E3017"/>
<rect x="18" y="21" width="1.5" height="1.5" fill="#402F15"/>
<rect x="19.5" y="21" width="1.5" height="1.5" fill="#4A371F"/>
<rect x="21" y="21" width="1.5" height="1.5" fill="#402E16"/>
<rect x="22.5" y="21" width="1.5" height="1.5" fill="#8F5F37"/>
<rect x="24" y="21" width="1.5" height="1.5" fill="#905E39"/>
<rect x="25.5" y="21" width="1.5" height="1.5" fill="#3F2F16"/>
<rect x="27" y="21" width="1.5" height="1.5" fill="#4B371F"/>
<rect x="28.5" y="21" width="1.5" height="1.5" fill="#412F11"/>
<rect x="30" y="21" width="1.5" height="1.5" fill="#422E13"/>
<rect x="31.5" y="21" width="1.5" height="1.5" fill="#3F2F16"/>
<rect x="33" y="21" width="1.5" height="1.5" fill="#614321"/>
<rect x="34.5" y="21" width="1.5" height="1.5" fill="#A96F47"/>
<rect x="36" y="21" width="1.5" height="1.5" fill="#8F6032"/>
<rect x="37.5" y="21" width="1.5" height="1.5" fill="#443323"/>
<rect x="39" y="21" width="1.5" height="1.5" fill="#6B4727"/>
<rect x="40.5" y="21" width="1.5" height="1.5" fill="#B37343"/>
<rect x="6" y="22.5" width="1.5" height="1.5" fill="#90603A"/>
<rect x="7.5" y="22.5" width="1.5" height="1.5" fill="#6B4728"/>
<rect x="9" y="22.5" width="1.5" height="1.5" fill="#6B5033"/>
<rect x="10.5" y="22.5" width="1.5" height="1.5" fill="#B57549"/>
<rect x="12" y="22.5" width="1.5" height="1.5" fill="#774F2C"/>
<rect x="13.5" y="22.5" width="1.5" height="1.5" fill="#6C6B69"/>
<rect x="15" y="22.5" width="1.5" height="1.5" fill="#010002"/>
<rect x="16.5" y="22.5" width="1.5" height="1.5" fill="#69696B"/>
<rect x="18" y="22.5" width="1.5" height="1.5" fill="#3B3B3B"/>
<rect x="19.5" y="22.5" width="1.5" height="1.5" fill="black"/>
<rect x="21" y="22.5" width="1.5" height="1.5" fill="#533E21"/>
<rect x="22.5" y="22.5" width="1.5" height="1.5" fill="#D48C5A"/>
<rect x="24" y="22.5" width="1.5" height="1.5" fill="#D68B5A"/>
<rect x="25.5" y="22.5" width="1.5" height="1.5" fill="#4F3E22"/>
<rect x="27" y="22.5" width="1.5" height="1.5" fill="#000001"/>
<rect x="28.5" y="22.5" width="1.5" height="1.5" fill="#6B6A6F"/>
<rect x="30" y="22.5" width="1.5" height="1.5" fill="#030002"/>
<rect x="31.5" y="22.5" width="1.5" height="1.5" fill="#726869"/>
<rect x="33" y="22.5" width="1.5" height="1.5" fill="#B1B5B4"/>
<rect x="34.5" y="22.5" width="1.5" height="1.5" fill="#76502C"/>
<rect x="36" y="22.5" width="1.5" height="1.5" fill="#B8704A"/>
<rect x="37.5" y="22.5" width="1.5" height="1.5" fill="#695230"/>
<rect x="39" y="22.5" width="1.5" height="1.5" fill="#6D4627"/>
<rect x="40.5" y="22.5" width="1.5" height="1.5" fill="#8C6039"/>
<rect x="6" y="24" width="1.5" height="1.5" fill="#6B4727"/>
<rect x="7.5" y="24" width="1.5" height="1.5" fill="#604323"/>
<rect x="9" y="24" width="1.5" height="1.5" fill="#875635"/>
<rect x="10.5" y="24" width="1.5" height="1.5" fill="#B57549"/>
<rect x="12" y="24" width="1.5" height="1.5" fill="#8F5F37"/>
<rect x="13.5" y="24" width="1.5" height="1.5" fill="#AB6E42"/>
<rect x="15" y="24" width="1.5" height="1.5" fill="#EB9798"/>
<rect x="16.5" y="24" width="1.5" height="1.5" fill="#BB5755"/>
<rect x="18" y="24" width="1.5" height="1.5" fill="#6A4727"/>
<rect x="19.5" y="24" width="1.5" height="1.5" fill="#614225"/>
<rect x="21" y="24" width="1.5" height="1.5" fill="#8F6038"/>
<rect x="22.5" y="24" width="1.5" height="1.5" fill="#CC8551"/>
<rect x="24" y="24" width="1.5" height="1.5" fill="#E79B69"/>
<rect x="25.5" y="24" width="1.5" height="1.5" fill="#8F5F39"/>
<rect x="27" y="24" width="1.5" height="1.5" fill="#5E4325"/>
<rect x="28.5" y="24" width="1.5" height="1.5" fill="#6A4729"/>
<rect x="30" y="24" width="1.5" height="1.5" fill="#BC5654"/>
<rect x="31.5" y="24" width="1.5" height="1.5" fill="#EE9597"/>
<rect x="33" y="24" width="1.5" height="1.5" fill="#AA6F43"/>
<rect x="34.5" y="24" width="1.5" height="1.5" fill="#905E39"/>
<rect x="36" y="24" width="1.5" height="1.5" fill="#B57343"/>
<rect x="37.5" y="24" width="1.5" height="1.5" fill="#885834"/>
<rect x="39" y="24" width="1.5" height="1.5" fill="#5F4222"/>
<rect x="40.5" y="24" width="1.5" height="1.5" fill="#6C4828"/>
<rect x="6" y="25.5" width="1.5" height="1.5" fill="#885834"/>
<rect x="7.5" y="25.5" width="1.5" height="1.5" fill="#604325"/>
<rect x="9" y="25.5" width="1.5" height="1.5" fill="#885635"/>
<rect x="10.5" y="25.5" width="1.5" height="1.5" fill="#DE7C7D"/>
<rect x="12" y="25.5" width="1.5" height="1.5" fill="#D88A5A"/>
<rect x="13.5" y="25.5" width="1.5" height="1.5" fill="#C07C4D"/>
<rect x="15" y="25.5" width="1.5" height="1.5" fill="#AE7145"/>
<rect x="16.5" y="25.5" width="1.5" height="1.5" fill="#8E5F38"/>
<rect x="18" y="25.5" width="1.5" height="1.5" fill="#AD7044"/>
<rect x="19.5" y="25.5" width="1.5" height="1.5" fill="#C97D4C"/>
<rect x="21" y="25.5" width="1.5" height="1.5" fill="#D78B5A"/>
<rect x="22.5" y="25.5" width="1.5" height="1.5" fill="#FFA25C"/>
<rect x="24" y="25.5" width="1.5" height="1.5" fill="#FFB47B"/>
<rect x="25.5" y="25.5" width="1.5" height="1.5" fill="#D98B5A"/>
<rect x="27" y="25.5" width="1.5" height="1.5" fill="#C9804D"/>
<rect x="28.5" y="25.5" width="1.5" height="1.5" fill="#AC6F43"/>
<rect x="30" y="25.5" width="1.5" height="1.5" fill="#8F5F37"/>
<rect x="31.5" y="25.5" width="1.5" height="1.5" fill="#A97142"/>
<rect x="33" y="25.5" width="1.5" height="1.5" fill="#BF7B4C"/>
<rect x="34.5" y="25.5" width="1.5" height="1.5" fill="#D88A5C"/>
<rect x="36" y="25.5" width="1.5" height="1.5" fill="#DC7A79"/>
<rect x="37.5" y="25.5" width="1.5" height="1.5" fill="#875733"/>
<rect x="39" y="25.5" width="1.5" height="1.5" fill="#604323"/>
<rect x="40.5" y="25.5" width="1.5" height="1.5" fill="#875733"/>
<rect x="6" y="27" width="1.5" height="1.5" fill="#8F6036"/>
<rect x="7.5" y="27" width="1.5" height="1.5" fill="#61431F"/>
<rect x="9" y="27" width="1.5" height="1.5" fill="#8E5E36"/>
<rect x="10.5" y="27" width="1.5" height="1.5" fill="#CF8351"/>
<rect x="12" y="27" width="1.5" height="1.5" fill="#E09261"/>
<rect x="13.5" y="27" width="1.5" height="1.5" fill="#F0A375"/>
<rect x="15" y="27" width="1.5" height="1.5" fill="#DE9362"/>
<rect x="16.5" y="27" width="1.5" height="1.5" fill="#CA7E4D"/>
<rect x="18" y="27" width="1.5" height="1.5" fill="#FFA156"/>
<rect x="19.5" y="27" width="1.5" height="1.5" fill="#FDBC96"/>
<rect x="21" y="27" width="1.5" height="1.5" fill="#E79B6A"/>
<rect x="22.5" y="27" width="1.5" height="1.5" fill="#FDA45D"/>
<rect x="24" y="27" width="1.5" height="1.5" fill="#FFB379"/>
<rect x="25.5" y="27" width="1.5" height="1.5" fill="#E79B67"/>
<rect x="27" y="27" width="1.5" height="1.5" fill="#FFBB96"/>
<rect x="28.5" y="27" width="1.5" height="1.5" fill="#FBA55C"/>
<rect x="30" y="27" width="1.5" height="1.5" fill="#C97F50"/>
<rect x="31.5" y="27" width="1.5" height="1.5" fill="#DE9362"/>
<rect x="33" y="27" width="1.5" height="1.5" fill="#F0A272"/>
<rect x="34.5" y="27" width="1.5" height="1.5" fill="#DF9361"/>
<rect x="36" y="27" width="1.5" height="1.5" fill="#D28058"/>
<rect x="37.5" y="27" width="1.5" height="1.5" fill="#915F3A"/>
<rect x="39" y="27" width="1.5" height="1.5" fill="#604222"/>
<rect x="40.5" y="27" width="1.5" height="1.5" fill="#8F6036"/>
<rect x="7.5" y="28.5" width="1.5" height="1.5" fill="#604225"/>
<rect x="9" y="28.5" width="1.5" height="1.5" fill="#885633"/>
<rect x="10.5" y="28.5" width="1.5" height="1.5" fill="#A46B40"/>
<rect x="12" y="28.5" width="1.5" height="1.5" fill="#AD6E43"/>
<rect x="13.5" y="28.5" width="1.5" height="1.5" fill="#BF7B4C"/>
<rect x="15" y="28.5" width="1.5" height="1.5" fill="#D88A5A"/>
<rect x="16.5" y="28.5" width="1.5" height="1.5" fill="#FEA35B"/>
<rect x="18" y="28.5" width="1.5" height="1.5" fill="#FFC69D"/>
<rect x="19.5" y="28.5" width="1.5" height="1.5" fill="#E09261"/>
<rect x="21" y="28.5" width="1.5" height="1.5" fill="#DA895A"/>
<rect x="22.5" y="28.5" width="1.5" height="1.5" fill="#FEB37A"/>
<rect x="24" y="28.5" width="1.5" height="1.5" fill="#FDD9B7"/>
<rect x="25.5" y="28.5" width="1.5" height="1.5" fill="#D88B57"/>
<rect x="27" y="28.5" width="1.5" height="1.5" fill="#DD9362"/>
<rect x="28.5" y="28.5" width="1.5" height="1.5" fill="#FFC5A7"/>
<rect x="30" y="28.5" width="1.5" height="1.5" fill="#FFA35A"/>
<rect x="31.5" y="28.5" width="1.5" height="1.5" fill="#D58C57"/>
<rect x="33" y="28.5" width="1.5" height="1.5" fill="#C17A4C"/>
<rect x="34.5" y="28.5" width="1.5" height="1.5" fill="#AD6E43"/>
<rect x="36" y="28.5" width="1.5" height="1.5" fill="#A16C44"/>
<rect x="37.5" y="28.5" width="1.5" height="1.5" fill="#875733"/>
<rect x="39" y="28.5" width="1.5" height="1.5" fill="#604323"/>
<rect x="7.5" y="30" width="1.5" height="1.5" fill="#634221"/>
<rect x="9" y="30" width="1.5" height="1.5" fill="#794E2B"/>
<rect x="10.5" y="30" width="1.5" height="1.5" fill="#9C613B"/>
<rect x="12" y="30" width="1.5" height="1.5" fill="#A46A42"/>
<rect x="13.5" y="30" width="1.5" height="1.5" fill="#BE7B4E"/>
<rect x="15" y="30" width="1.5" height="1.5" fill="#EFA372"/>
<rect x="16.5" y="30" width="1.5" height="1.5" fill="#F7AB79"/>
<rect x="18" y="30" width="1.5" height="1.5" fill="#D5885A"/>
<rect x="19.5" y="30" width="1.5" height="1.5" fill="#AD6E42"/>
<rect x="21" y="30" width="1.5" height="1.5" fill="#9A633C"/>
<rect x="22.5" y="30" width="1.5" height="1.5" fill="#A08362"/>
<rect x="24" y="30" width="1.5" height="1.5" fill="#A08365"/>
<rect x="25.5" y="30" width="1.5" height="1.5" fill="#9A633C"/>
<rect x="27" y="30" width="1.5" height="1.5" fill="#B06D41"/>
<rect x="28.5" y="30" width="1.5" height="1.5" fill="#D78B5A"/>
<rect x="30" y="30" width="1.5" height="1.5" fill="#F8A97E"/>
<rect x="31.5" y="30" width="1.5" height="1.5" fill="#F0A36F"/>
<rect x="33" y="30" width="1.5" height="1.5" fill="#C17A4E"/>
<rect x="34.5" y="30" width="1.5" height="1.5" fill="#A56A40"/>
<rect x="36" y="30" width="1.5" height="1.5" fill="#98643F"/>
<rect x="37.5" y="30" width="1.5" height="1.5" fill="#774F2B"/>
<rect x="39" y="30" width="1.5" height="1.5" fill="#5F4423"/>
<rect x="9" y="31.5" width="1.5" height="1.5" fill="#7A4F28"/>
<rect x="10.5" y="31.5" width="1.5" height="1.5" fill="#B37345"/>
<rect x="12" y="31.5" width="1.5" height="1.5" fill="#9A633C"/>
<rect x="13.5" y="31.5" width="1.5" height="1.5" fill="#D78B5A"/>
<rect x="15" y="31.5" width="1.5" height="1.5" fill="#FFBB94"/>
<rect x="16.5" y="31.5" width="1.5" height="1.5" fill="#E59C69"/>
<rect x="18" y="31.5" width="1.5" height="1.5" fill="#BE7B4F"/>
<rect x="19.5" y="31.5" width="1.5" height="1.5" fill="#523F1F"/>
<rect x="21" y="31.5" width="1.5" height="1.5" fill="#775029"/>
<rect x="22.5" y="31.5" width="1.5" height="1.5" fill="#885633"/>
<rect x="24" y="31.5" width="1.5" height="1.5" fill="#895837"/>
<rect x="25.5" y="31.5" width="1.5" height="1.5" fill="#775029"/>
<rect x="27" y="31.5" width="1.5" height="1.5" fill="#50401C"/>
<rect x="28.5" y="31.5" width="1.5" height="1.5" fill="#BF7B4E"/>
<rect x="30" y="31.5" width="1.5" height="1.5" fill="#E89A69"/>
<rect x="31.5" y="31.5" width="1.5" height="1.5" fill="#FFBC92"/>
<rect x="33" y="31.5" width="1.5" height="1.5" fill="#D58B5A"/>
<rect x="34.5" y="31.5" width="1.5" height="1.5" fill="#9C623A"/>
<rect x="36" y="31.5" width="1.5" height="1.5" fill="#B97047"/>
<rect x="37.5" y="31.5" width="1.5" height="1.5" fill="#765029"/>
<rect x="9" y="33" width="1.5" height="1.5" fill="#60441F"/>
<rect x="10.5" y="33" width="1.5" height="1.5" fill="#CB7F4E"/>
<rect x="12" y="33" width="1.5" height="1.5" fill="#99643C"/>
<rect x="13.5" y="33" width="1.5" height="1.5" fill="#E79B6A"/>
<rect x="15" y="33" width="1.5" height="1.5" fill="#F8AA79"/>
<rect x="16.5" y="33" width="1.5" height="1.5" fill="#CE8251"/>
<rect x="18" y="33" width="1.5" height="1.5" fill="#CF8352"/>
<rect x="19.5" y="33" width="1.5" height="1.5" fill="#D78B59"/>
<rect x="21" y="33" width="1.5" height="1.5" fill="#BF7B4C"/>
<rect x="22.5" y="33" width="1.5" height="1.5" fill="#A46B40"/>
<rect x="24" y="33" width="1.5" height="1.5" fill="#A56A40"/>
<rect x="25.5" y="33" width="1.5" height="1.5" fill="#C07B4A"/>
<rect x="27" y="33" width="1.5" height="1.5" fill="#D78B59"/>
<rect x="28.5" y="33" width="1.5" height="1.5" fill="#CF8352"/>
<rect x="30" y="33" width="1.5" height="1.5" fill="#CF8352"/>
<rect x="31.5" y="33" width="1.5" height="1.5" fill="#F7AB7A"/>
<rect x="33" y="33" width="1.5" height="1.5" fill="#E59A69"/>
<rect x="34.5" y="33" width="1.5" height="1.5" fill="#9B6139"/>
<rect x="36" y="33" width="1.5" height="1.5" fill="#C9804C"/>
<rect x="37.5" y="33" width="1.5" height="1.5" fill="#604323"/>
<rect x="9" y="34.5" width="1.5" height="1.5" fill="#563D1F"/>
<rect x="10.5" y="34.5" width="1.5" height="1.5" fill="#AB6E42"/>
<rect x="12" y="34.5" width="1.5" height="1.5" fill="#A26941"/>
<rect x="13.5" y="34.5" width="1.5" height="1.5" fill="#D68858"/>
<rect x="15" y="34.5" width="1.5" height="1.5" fill="#E89A6A"/>
<rect x="16.5" y="34.5" width="1.5" height="1.5" fill="#D08251"/>
<rect x="18" y="34.5" width="1.5" height="1.5" fill="#D58C59"/>
<rect x="19.5" y="34.5" width="1.5" height="1.5" fill="#F6AB7D"/>
<rect x="21" y="34.5" width="1.5" height="1.5" fill="#FFBF9B"/>
<rect x="22.5" y="34.5" width="1.5" height="1.5" fill="#DC9464"/>
<rect x="24" y="34.5" width="1.5" height="1.5" fill="#E19363"/>
<rect x="25.5" y="34.5" width="1.5" height="1.5" fill="#FFBF99"/>
<rect x="27" y="34.5" width="1.5" height="1.5" fill="#F8AA79"/>
<rect x="28.5" y="34.5" width="1.5" height="1.5" fill="#D88A59"/>
<rect x="30" y="34.5" width="1.5" height="1.5" fill="#D08252"/>
<rect x="31.5" y="34.5" width="1.5" height="1.5" fill="#E89A69"/>
<rect x="33" y="34.5" width="1.5" height="1.5" fill="#D78B5A"/>
<rect x="34.5" y="34.5" width="1.5" height="1.5" fill="#A46C3D"/>
<rect x="36" y="34.5" width="1.5" height="1.5" fill="#A77048"/>
<rect x="37.5" y="34.5" width="1.5" height="1.5" fill="#533E1F"/>
<rect x="10.5" y="36" width="1.5" height="1.5" fill="#885633"/>
<rect x="12" y="36" width="1.5" height="1.5" fill="#A96E42"/>
<rect x="13.5" y="36" width="1.5" height="1.5" fill="#CB7F4E"/>
<rect x="15" y="36" width="1.5" height="1.5" fill="#D78B5A"/>
<rect x="16.5" y="36" width="1.5" height="1.5" fill="#905F33"/>
<rect x="18" y="36" width="1.5" height="1.5" fill="#794F27"/>
<rect x="19.5" y="36" width="1.5" height="1.5" fill="#9A5C11"/>
<rect x="21" y="36" width="1.5" height="1.5" fill="#9B5B13"/>
<rect x="22.5" y="36" width="1.5" height="1.5" fill="#9D5B11"/>
<rect x="24" y="36" width="1.5" height="1.5" fill="#9D5A13"/>
<rect x="25.5" y="36" width="1.5" height="1.5" fill="#9C5A0E"/>
<rect x="27" y="36" width="1.5" height="1.5" fill="#9E5C0F"/>
<rect x="28.5" y="36" width="1.5" height="1.5" fill="#774F2B"/>
<rect x="30" y="36" width="1.5" height="1.5" fill="#8D6038"/>
<rect x="31.5" y="36" width="1.5" height="1.5" fill="#D78B5A"/>
<rect x="33" y="36" width="1.5" height="1.5" fill="#CB7D4C"/>
<rect x="34.5" y="36" width="1.5" height="1.5" fill="#AA6F45"/>
<rect x="36" y="36" width="1.5" height="1.5" fill="#845833"/>
<rect x="10.5" y="37.5" width="1.5" height="1.5" fill="#553D23"/>
<rect x="12" y="37.5" width="1.5" height="1.5" fill="#8E6038"/>
<rect x="13.5" y="37.5" width="1.5" height="1.5" fill="#B57247"/>
<rect x="15" y="37.5" width="1.5" height="1.5" fill="#C97F4E"/>
<rect x="16.5" y="37.5" width="1.5" height="1.5" fill="#C77D4E"/>
<rect x="18" y="37.5" width="1.5" height="1.5" fill="#CB7F4D"/>
<rect x="19.5" y="37.5" width="1.5" height="1.5" fill="#DA895A"/>
<rect x="21" y="37.5" width="1.5" height="1.5" fill="#E79B6D"/>
<rect x="22.5" y="37.5" width="1.5" height="1.5" fill="#FCA35F"/>
<rect x="24" y="37.5" width="1.5" height="1.5" fill="#FFA258"/>
<rect x="25.5" y="37.5" width="1.5" height="1.5" fill="#E79A6C"/>
<rect x="27" y="37.5" width="1.5" height="1.5" fill="#D58C57"/>
<rect x="28.5" y="37.5" width="1.5" height="1.5" fill="#C97F50"/>
<rect x="30" y="37.5" width="1.5" height="1.5" fill="#CB7F4E"/>
<rect x="31.5" y="37.5" width="1.5" height="1.5" fill="#CC7E4D"/>
<rect x="33" y="37.5" width="1.5" height="1.5" fill="#B57247"/>
<rect x="34.5" y="37.5" width="1.5" height="1.5" fill="#8F5F37"/>
<rect x="36" y="37.5" width="1.5" height="1.5" fill="#533D25"/>
<rect x="12" y="39" width="1.5" height="1.5" fill="#69472A"/>
<rect x="13.5" y="39" width="1.5" height="1.5" fill="#AA6F44"/>
<rect x="15" y="39" width="1.5" height="1.5" fill="#D08251"/>
<rect x="16.5" y="39" width="1.5" height="1.5" fill="#DF9362"/>
<rect x="18" y="39" width="1.5" height="1.5" fill="#CB7F4E"/>
<rect x="19.5" y="39" width="1.5" height="1.5" fill="#AD6E45"/>
<rect x="21" y="39" width="1.5" height="1.5" fill="#905F36"/>
<rect x="22.5" y="39" width="1.5" height="1.5" fill="#7E5230"/>
<rect x="24" y="39" width="1.5" height="1.5" fill="#7F532E"/>
<rect x="25.5" y="39" width="1.5" height="1.5" fill="#905F34"/>
<rect x="27" y="39" width="1.5" height="1.5" fill="#A97043"/>
<rect x="28.5" y="39" width="1.5" height="1.5" fill="#CB7F4E"/>
<rect x="30" y="39" width="1.5" height="1.5" fill="#DF9362"/>
<rect x="31.5" y="39" width="1.5" height="1.5" fill="#CD8353"/>
<rect x="33" y="39" width="1.5" height="1.5" fill="#AD6E45"/>
<rect x="34.5" y="39" width="1.5" height="1.5" fill="#6A4729"/>
<rect x="13.5" y="40.5" width="1.5" height="1.5" fill="#6D4627"/>
<rect x="15" y="40.5" width="1.5" height="1.5" fill="#AB7044"/>
<rect x="16.5" y="40.5" width="1.5" height="1.5" fill="#CE8251"/>
<rect x="18" y="40.5" width="1.5" height="1.5" fill="#DF9362"/>
<rect x="19.5" y="40.5" width="1.5" height="1.5" fill="#CB804F"/>
<rect x="21" y="40.5" width="1.5" height="1.5" fill="#CB7F4E"/>
<rect x="22.5" y="40.5" width="1.5" height="1.5" fill="#E79D6C"/>
<rect x="24" y="40.5" width="1.5" height="1.5" fill="#E89A6A"/>
<rect x="25.5" y="40.5" width="1.5" height="1.5" fill="#CB7F4E"/>
<rect x="27" y="40.5" width="1.5" height="1.5" fill="#CB7F4E"/>
<rect x="28.5" y="40.5" width="1.5" height="1.5" fill="#DF9362"/>
<rect x="30" y="40.5" width="1.5" height="1.5" fill="#CD8451"/>
<rect x="31.5" y="40.5" width="1.5" height="1.5" fill="#AD6E45"/>
<rect x="33" y="40.5" width="1.5" height="1.5" fill="#6E4629"/>
<rect x="15" y="42" width="1.5" height="1.5" fill="#523F20"/>
<rect x="16.5" y="42" width="1.5" height="1.5" fill="#885834"/>
<rect x="18" y="42" width="1.5" height="1.5" fill="#B57247"/>
<rect x="19.5" y="42" width="1.5" height="1.5" fill="#D78B5A"/>
<rect x="21" y="42" width="1.5" height="1.5" fill="#E89C6B"/>
<rect x="22.5" y="42" width="1.5" height="1.5" fill="#FFBF9B"/>
<rect x="24" y="42" width="1.5" height="1.5" fill="#FFBF9B"/>
<rect x="25.5" y="42" width="1.5" height="1.5" fill="#E79A6C"/>
<rect x="27" y="42" width="1.5" height="1.5" fill="#D58B5A"/>
<rect x="28.5" y="42" width="1.5" height="1.5" fill="#B57245"/>
<rect x="30" y="42" width="1.5" height="1.5" fill="#855733"/>
<rect x="31.5" y="42" width="1.5" height="1.5" fill="#523F1E"/>
<rect x="18" y="43.5" width="1.5" height="1.5" fill="#6B4727"/>
<rect x="19.5" y="43.5" width="1.5" height="1.5" fill="#8E6138"/>
<rect x="21" y="43.5" width="1.5" height="1.5" fill="#A46B40"/>
<rect x="22.5" y="43.5" width="1.5" height="1.5" fill="#A46B40"/>
<rect x="24" y="43.5" width="1.5" height="1.5" fill="#A56A40"/>
<rect x="25.5" y="43.5" width="1.5" height="1.5" fill="#A76A3E"/>
<rect x="27" y="43.5" width="1.5" height="1.5" fill="#8C5F38"/>
<rect x="28.5" y="43.5" width="1.5" height="1.5" fill="#66472A"/>
</svg>
