<svg width="64" height="64" viewBox="0 0 64 64" fill="none" xmlns="http://www.w3.org/2000/svg">
<rect x="18" y="2" width="2" height="2" fill="#4C381D"/>
<rect x="20" y="2" width="2" height="2" fill="#604325"/>
<rect x="22" y="2" width="2" height="2" fill="#604323"/>
<rect x="24" y="2" width="2" height="2" fill="#604323"/>
<rect x="26" y="2" width="2" height="2" fill="#6B4727"/>
<rect x="28" y="2" width="2" height="2" fill="#774F2B"/>
<rect x="30" y="2" width="2" height="2" fill="#774F2B"/>
<rect x="32" y="2" width="2" height="2" fill="#774F2C"/>
<rect x="34" y="2" width="2" height="2" fill="#774F2B"/>
<rect x="36" y="2" width="2" height="2" fill="#774F2B"/>
<rect x="38" y="2" width="2" height="2" fill="#6D4627"/>
<rect x="40" y="2" width="2" height="2" fill="#604323"/>
<rect x="42" y="2" width="2" height="2" fill="#6D4627"/>
<rect x="44" y="2" width="2" height="2" fill="#604323"/>
<rect x="14" y="4" width="2" height="2" fill="#332B16"/>
<rect x="16" y="4" width="2" height="2" fill="#614225"/>
<rect x="18" y="4" width="2" height="2" fill="#533E21"/>
<rect x="20" y="4" width="2" height="2" fill="#805231"/>
<rect x="22" y="4" width="2" height="2" fill="#8D6035"/>
<rect x="24" y="4" width="2" height="2" fill="#A96E44"/>
<rect x="26" y="4" width="2" height="2" fill="#BF7B4E"/>
<rect x="28" y="4" width="2" height="2" fill="#CD8451"/>
<rect x="30" y="4" width="2" height="2" fill="#CF8653"/>
<rect x="32" y="4" width="2" height="2" fill="#CD8354"/>
<rect x="34" y="4" width="2" height="2" fill="#BF7B4C"/>
<rect x="36" y="4" width="2" height="2" fill="#AC6D42"/>
<rect x="38" y="4" width="2" height="2" fill="#9C623D"/>
<rect x="40" y="4" width="2" height="2" fill="#76502C"/>
<rect x="42" y="4" width="2" height="2" fill="#5D4425"/>
<rect x="44" y="4" width="2" height="2" fill="#553E1E"/>
<rect x="46" y="4" width="2" height="2" fill="#604325"/>
<rect x="48" y="4" width="2" height="2" fill="#60441D"/>
<rect x="12" y="6" width="2" height="2" fill="#332C11"/>
<rect x="14" y="6" width="2" height="2" fill="#604323"/>
<rect x="16" y="6" width="2" height="2" fill="#774F2B"/>
<rect x="18" y="6" width="2" height="2" fill="#905F37"/>
<rect x="20" y="6" width="2" height="2" fill="#AD7044"/>
<rect x="22" y="6" width="2" height="2" fill="#BD7B49"/>
<rect x="24" y="6" width="2" height="2" fill="#BF7B4A"/>
<rect x="26" y="6" width="2" height="2" fill="#BE7C4C"/>
<rect x="28" y="6" width="2" height="2" fill="#BF7B4A"/>
<rect x="30" y="6" width="2" height="2" fill="#B37546"/>
<rect x="32" y="6" width="2" height="2" fill="#99643C"/>
<rect x="34" y="6" width="2" height="2" fill="#9C623C"/>
<rect x="36" y="6" width="2" height="2" fill="#99643A"/>
<rect x="38" y="6" width="2" height="2" fill="#905F36"/>
<rect x="40" y="6" width="2" height="2" fill="#8F5F37"/>
<rect x="42" y="6" width="2" height="2" fill="#774F2B"/>
<rect x="44" y="6" width="2" height="2" fill="#775029"/>
<rect x="46" y="6" width="2" height="2" fill="#533E1F"/>
<rect x="48" y="6" width="2" height="2" fill="#4B3619"/>
<rect x="50" y="6" width="2" height="2" fill="#332B14"/>
<rect x="12" y="8" width="2" height="2" fill="#322C14"/>
<rect x="14" y="8" width="2" height="2" fill="#7B4F2C"/>
<rect x="16" y="8" width="2" height="2" fill="#855733"/>
<rect x="18" y="8" width="2" height="2" fill="#774F2B"/>
<rect x="20" y="8" width="2" height="2" fill="#8D6037"/>
<rect x="22" y="8" width="2" height="2" fill="#9A633C"/>
<rect x="24" y="8" width="2" height="2" fill="#B57343"/>
<rect x="26" y="8" width="2" height="2" fill="#875733"/>
<rect x="28" y="8" width="2" height="2" fill="#AC6F43"/>
<rect x="30" y="8" width="2" height="2" fill="#8F5F39"/>
<rect x="32" y="8" width="2" height="2" fill="#A46C3D"/>
<rect x="34" y="8" width="2" height="2" fill="#764F2E"/>
<rect x="36" y="8" width="2" height="2" fill="#774F2B"/>
<rect x="38" y="8" width="2" height="2" fill="#794E2B"/>
<rect x="40" y="8" width="2" height="2" fill="#775029"/>
<rect x="42" y="8" width="2" height="2" fill="#604325"/>
<rect x="44" y="8" width="2" height="2" fill="#533F1E"/>
<rect x="46" y="8" width="2" height="2" fill="#332B14"/>
<rect x="48" y="8" width="2" height="2" fill="#332B16"/>
<rect x="50" y="8" width="2" height="2" fill="#2B2310"/>
<rect x="10" y="10" width="2" height="2" fill="#2B2310"/>
<rect x="12" y="10" width="2" height="2" fill="#3F2F16"/>
<rect x="14" y="10" width="2" height="2" fill="#604321"/>
<rect x="16" y="10" width="2" height="2" fill="#775029"/>
<rect x="18" y="10" width="2" height="2" fill="#5F4224"/>
<rect x="20" y="10" width="2" height="2" fill="#8F5D38"/>
<rect x="22" y="10" width="2" height="2" fill="#9B6237"/>
<rect x="24" y="10" width="2" height="2" fill="#8F5F37"/>
<rect x="26" y="10" width="2" height="2" fill="#8F6036"/>
<rect x="28" y="10" width="2" height="2" fill="#8F5F37"/>
<rect x="30" y="10" width="2" height="2" fill="#8F5F37"/>
<rect x="32" y="10" width="2" height="2" fill="#4B381A"/>
<rect x="34" y="10" width="2" height="2" fill="#8E5F35"/>
<rect x="36" y="10" width="2" height="2" fill="#604323"/>
<rect x="38" y="10" width="2" height="2" fill="#4B371C"/>
<rect x="40" y="10" width="2" height="2" fill="#624422"/>
<rect x="42" y="10" width="2" height="2" fill="#4C371A"/>
<rect x="44" y="10" width="2" height="2" fill="#322A13"/>
<rect x="46" y="10" width="2" height="2" fill="#2A220F"/>
<rect x="48" y="10" width="2" height="2" fill="#2C2310"/>
<rect x="50" y="10" width="2" height="2" fill="#29210E"/>
<rect x="52" y="10" width="2" height="2" fill="#2B2310"/>
<rect x="10" y="12" width="2" height="2" fill="#2D2111"/>
<rect x="12" y="12" width="2" height="2" fill="#3F2F16"/>
<rect x="14" y="12" width="2" height="2" fill="#4B381A"/>
<rect x="16" y="12" width="2" height="2" fill="#533E1F"/>
<rect x="18" y="12" width="2" height="2" fill="#604323"/>
<rect x="20" y="12" width="2" height="2" fill="#8D6037"/>
<rect x="22" y="12" width="2" height="2" fill="#523F1F"/>
<rect x="24" y="12" width="2" height="2" fill="#9C623C"/>
<rect x="26" y="12" width="2" height="2" fill="#6B4727"/>
<rect x="28" y="12" width="2" height="2" fill="#6B4727"/>
<rect x="30" y="12" width="2" height="2" fill="#905F36"/>
<rect x="32" y="12" width="2" height="2" fill="#6A4727"/>
<rect x="34" y="12" width="2" height="2" fill="#4B371C"/>
<rect x="36" y="12" width="2" height="2" fill="#6D4627"/>
<rect x="38" y="12" width="2" height="2" fill="#4B371C"/>
<rect x="40" y="12" width="2" height="2" fill="#3F2F16"/>
<rect x="42" y="12" width="2" height="2" fill="#5D4523"/>
<rect x="44" y="12" width="2" height="2" fill="#2D2210"/>
<rect x="46" y="12" width="2" height="2" fill="#332B14"/>
<rect x="48" y="12" width="2" height="2" fill="#332B14"/>
<rect x="50" y="12" width="2" height="2" fill="#3F2F16"/>
<rect x="52" y="12" width="2" height="2" fill="#2B2310"/>
<rect x="10" y="14" width="2" height="2" fill="#2B2211"/>
<rect x="12" y="14" width="2" height="2" fill="#4C371C"/>
<rect x="14" y="14" width="2" height="2" fill="#4A391B"/>
<rect x="16" y="14" width="2" height="2" fill="#744E29"/>
<rect x="18" y="14" width="2" height="2" fill="#754F2B"/>
<rect x="20" y="14" width="2" height="2" fill="#523F1E"/>
<rect x="22" y="14" width="2" height="2" fill="#905E39"/>
<rect x="24" y="14" width="2" height="2" fill="#533E1F"/>
<rect x="26" y="14" width="2" height="2" fill="#6B4725"/>
<rect x="28" y="14" width="2" height="2" fill="#774F2B"/>
<rect x="30" y="14" width="2" height="2" fill="#6D4625"/>
<rect x="32" y="14" width="2" height="2" fill="#6A4729"/>
<rect x="34" y="14" width="2" height="2" fill="#8F5F37"/>
<rect x="36" y="14" width="2" height="2" fill="#8E5E36"/>
<rect x="38" y="14" width="2" height="2" fill="#8D6037"/>
<rect x="40" y="14" width="2" height="2" fill="#875732"/>
<rect x="42" y="14" width="2" height="2" fill="#875733"/>
<rect x="44" y="14" width="2" height="2" fill="#6B4727"/>
<rect x="46" y="14" width="2" height="2" fill="#4B371F"/>
<rect x="48" y="14" width="2" height="2" fill="#3F2F15"/>
<rect x="50" y="14" width="2" height="2" fill="#4C371A"/>
<rect x="52" y="14" width="2" height="2" fill="#2B2310"/>
<rect x="10" y="16" width="2" height="2" fill="#2A2110"/>
<rect x="12" y="16" width="2" height="2" fill="#4B371C"/>
<rect x="14" y="16" width="2" height="2" fill="#513E1D"/>
<rect x="16" y="16" width="2" height="2" fill="#744E29"/>
<rect x="18" y="16" width="2" height="2" fill="#8F5F39"/>
<rect x="20" y="16" width="2" height="2" fill="#76502B"/>
<rect x="22" y="16" width="2" height="2" fill="#533E1F"/>
<rect x="24" y="16" width="2" height="2" fill="#A16C44"/>
<rect x="26" y="16" width="2" height="2" fill="#543D1B"/>
<rect x="28" y="16" width="2" height="2" fill="#764F2D"/>
<rect x="30" y="16" width="2" height="2" fill="#905E39"/>
<rect x="32" y="16" width="2" height="2" fill="#A36941"/>
<rect x="34" y="16" width="2" height="2" fill="#B47347"/>
<rect x="36" y="16" width="2" height="2" fill="#9A633C"/>
<rect x="38" y="16" width="2" height="2" fill="#A46A3F"/>
<rect x="40" y="16" width="2" height="2" fill="#8F5F37"/>
<rect x="42" y="16" width="2" height="2" fill="#905F37"/>
<rect x="44" y="16" width="2" height="2" fill="#90603A"/>
<rect x="46" y="16" width="2" height="2" fill="#6C4729"/>
<rect x="48" y="16" width="2" height="2" fill="#4C381D"/>
<rect x="50" y="16" width="2" height="2" fill="#4B371C"/>
<rect x="52" y="16" width="2" height="2" fill="#2B2310"/>
<rect x="10" y="18" width="2" height="2" fill="#2B2211"/>
<rect x="12" y="18" width="2" height="2" fill="#4B371C"/>
<rect x="14" y="18" width="2" height="2" fill="#634125"/>
<rect x="16" y="18" width="2" height="2" fill="#8D6037"/>
<rect x="18" y="18" width="2" height="2" fill="#AC6E45"/>
<rect x="20" y="18" width="2" height="2" fill="#B27347"/>
<rect x="22" y="18" width="2" height="2" fill="#A26A3B"/>
<rect x="24" y="18" width="2" height="2" fill="#A66B3F"/>
<rect x="26" y="18" width="2" height="2" fill="#B37346"/>
<rect x="28" y="18" width="2" height="2" fill="#B37347"/>
<rect x="30" y="18" width="2" height="2" fill="#B47144"/>
<rect x="32" y="18" width="2" height="2" fill="#B57247"/>
<rect x="34" y="18" width="2" height="2" fill="#B37347"/>
<rect x="36" y="18" width="2" height="2" fill="#B37344"/>
<rect x="38" y="18" width="2" height="2" fill="#A46A42"/>
<rect x="40" y="18" width="2" height="2" fill="#A46B40"/>
<rect x="42" y="18" width="2" height="2" fill="#B47246"/>
<rect x="44" y="18" width="2" height="2" fill="#AD6E43"/>
<rect x="46" y="18" width="2" height="2" fill="#916037"/>
<rect x="48" y="18" width="2" height="2" fill="#523F21"/>
<rect x="50" y="18" width="2" height="2" fill="#4B371C"/>
<rect x="52" y="18" width="2" height="2" fill="#2B2310"/>
<rect x="10" y="20" width="2" height="2" fill="#2B2211"/>
<rect x="12" y="20" width="2" height="2" fill="#4B351D"/>
<rect x="14" y="20" width="2" height="2" fill="#745129"/>
<rect x="16" y="20" width="2" height="2" fill="#9A633C"/>
<rect x="18" y="20" width="2" height="2" fill="#CF8352"/>
<rect x="20" y="20" width="2" height="2" fill="#CB7F4E"/>
<rect x="22" y="20" width="2" height="2" fill="#CC7E4E"/>
<rect x="24" y="20" width="2" height="2" fill="#B47448"/>
<rect x="26" y="20" width="2" height="2" fill="#A46B40"/>
<rect x="28" y="20" width="2" height="2" fill="#AC6F43"/>
<rect x="30" y="20" width="2" height="2" fill="#AA7042"/>
<rect x="32" y="20" width="2" height="2" fill="#AA6F43"/>
<rect x="34" y="20" width="2" height="2" fill="#AB6E42"/>
<rect x="36" y="20" width="2" height="2" fill="#A26C40"/>
<rect x="38" y="20" width="2" height="2" fill="#B27348"/>
<rect x="40" y="20" width="2" height="2" fill="#CB7F4D"/>
<rect x="42" y="20" width="2" height="2" fill="#CB7F4E"/>
<rect x="44" y="20" width="2" height="2" fill="#CF8254"/>
<rect x="46" y="20" width="2" height="2" fill="#9A623D"/>
<rect x="48" y="20" width="2" height="2" fill="#604321"/>
<rect x="50" y="20" width="2" height="2" fill="#4B371C"/>
<rect x="52" y="20" width="2" height="2" fill="#2B2310"/>
<rect x="10" y="22" width="2" height="2" fill="#2A2310"/>
<rect x="12" y="22" width="2" height="2" fill="#4B371C"/>
<rect x="14" y="22" width="2" height="2" fill="#76502B"/>
<rect x="16" y="22" width="2" height="2" fill="#99643C"/>
<rect x="18" y="22" width="2" height="2" fill="#CF8352"/>
<rect x="20" y="22" width="2" height="2" fill="#ECA271"/>
<rect x="22" y="22" width="2" height="2" fill="#E79B6A"/>
<rect x="24" y="22" width="2" height="2" fill="#CE8251"/>
<rect x="26" y="22" width="2" height="2" fill="#C17A4C"/>
<rect x="28" y="22" width="2" height="2" fill="#A46B40"/>
<rect x="30" y="22" width="2" height="2" fill="#8F5F37"/>
<rect x="32" y="22" width="2" height="2" fill="#8F5F37"/>
<rect x="34" y="22" width="2" height="2" fill="#A56A40"/>
<rect x="36" y="22" width="2" height="2" fill="#BE7C4C"/>
<rect x="38" y="22" width="2" height="2" fill="#CF8352"/>
<rect x="40" y="22" width="2" height="2" fill="#E79B6A"/>
<rect x="42" y="22" width="2" height="2" fill="#EFA372"/>
<rect x="44" y="22" width="2" height="2" fill="#CF8351"/>
<rect x="46" y="22" width="2" height="2" fill="#9C623C"/>
<rect x="48" y="22" width="2" height="2" fill="#775029"/>
<rect x="50" y="22" width="2" height="2" fill="#4B371C"/>
<rect x="52" y="22" width="2" height="2" fill="#2B2310"/>
<rect x="10" y="24" width="2" height="2" fill="#2A230E"/>
<rect x="12" y="24" width="2" height="2" fill="#4B371C"/>
<rect x="14" y="24" width="2" height="2" fill="#76502B"/>
<rect x="16" y="24" width="2" height="2" fill="#B57247"/>
<rect x="18" y="24" width="2" height="2" fill="#E89A69"/>
<rect x="20" y="24" width="2" height="2" fill="#FFBB94"/>
<rect x="22" y="24" width="2" height="2" fill="#FFBB94"/>
<rect x="24" y="24" width="2" height="2" fill="#E79B6A"/>
<rect x="26" y="24" width="2" height="2" fill="#E89867"/>
<rect x="28" y="24" width="2" height="2" fill="#D08251"/>
<rect x="30" y="24" width="2" height="2" fill="#D68858"/>
<rect x="32" y="24" width="2" height="2" fill="#D88A59"/>
<rect x="34" y="24" width="2" height="2" fill="#CF834F"/>
<rect x="36" y="24" width="2" height="2" fill="#E79B69"/>
<rect x="38" y="24" width="2" height="2" fill="#EA9A69"/>
<rect x="40" y="24" width="2" height="2" fill="#FCBB91"/>
<rect x="42" y="24" width="2" height="2" fill="#FFBB94"/>
<rect x="44" y="24" width="2" height="2" fill="#E89A6A"/>
<rect x="46" y="24" width="2" height="2" fill="#B67148"/>
<rect x="48" y="24" width="2" height="2" fill="#76502C"/>
<rect x="50" y="24" width="2" height="2" fill="#4B371C"/>
<rect x="52" y="24" width="2" height="2" fill="#2B2310"/>
<rect x="8" y="26" width="2" height="2" fill="#B5714E"/>
<rect x="10" y="26" width="2" height="2" fill="#6D4723"/>
<rect x="12" y="26" width="2" height="2" fill="#4C371A"/>
<rect x="14" y="26" width="2" height="2" fill="#76502C"/>
<rect x="16" y="26" width="2" height="2" fill="#6B4629"/>
<rect x="18" y="26" width="2" height="2" fill="#6D4627"/>
<rect x="20" y="26" width="2" height="2" fill="#554021"/>
<rect x="22" y="26" width="2" height="2" fill="#A16D45"/>
<rect x="24" y="26" width="2" height="2" fill="#E39767"/>
<rect x="26" y="26" width="2" height="2" fill="#B2744A"/>
<rect x="28" y="26" width="2" height="2" fill="#785029"/>
<rect x="30" y="26" width="2" height="2" fill="#B57245"/>
<rect x="32" y="26" width="2" height="2" fill="#B37248"/>
<rect x="34" y="26" width="2" height="2" fill="#775029"/>
<rect x="36" y="26" width="2" height="2" fill="#B37248"/>
<rect x="38" y="26" width="2" height="2" fill="#DF9361"/>
<rect x="40" y="26" width="2" height="2" fill="#A26B42"/>
<rect x="42" y="26" width="2" height="2" fill="#553E1F"/>
<rect x="44" y="26" width="2" height="2" fill="#694829"/>
<rect x="46" y="26" width="2" height="2" fill="#6D4625"/>
<rect x="48" y="26" width="2" height="2" fill="#794F28"/>
<rect x="50" y="26" width="2" height="2" fill="#4B371C"/>
<rect x="52" y="26" width="2" height="2" fill="#6C4826"/>
<rect x="54" y="26" width="2" height="2" fill="#AF744A"/>
<rect x="8" y="28" width="2" height="2" fill="#B57247"/>
<rect x="10" y="28" width="2" height="2" fill="#6B4727"/>
<rect x="12" y="28" width="2" height="2" fill="#463324"/>
<rect x="14" y="28" width="2" height="2" fill="#8F6036"/>
<rect x="16" y="28" width="2" height="2" fill="#A96F45"/>
<rect x="18" y="28" width="2" height="2" fill="#604325"/>
<rect x="20" y="28" width="2" height="2" fill="#402E16"/>
<rect x="22" y="28" width="2" height="2" fill="#3E3017"/>
<rect x="24" y="28" width="2" height="2" fill="#402F15"/>
<rect x="26" y="28" width="2" height="2" fill="#4A371F"/>
<rect x="28" y="28" width="2" height="2" fill="#402E16"/>
<rect x="30" y="28" width="2" height="2" fill="#8F5F37"/>
<rect x="32" y="28" width="2" height="2" fill="#905E39"/>
<rect x="34" y="28" width="2" height="2" fill="#3F2F16"/>
<rect x="36" y="28" width="2" height="2" fill="#4B371F"/>
<rect x="38" y="28" width="2" height="2" fill="#412F11"/>
<rect x="40" y="28" width="2" height="2" fill="#422E13"/>
<rect x="42" y="28" width="2" height="2" fill="#3F2F16"/>
<rect x="44" y="28" width="2" height="2" fill="#614321"/>
<rect x="46" y="28" width="2" height="2" fill="#A96F47"/>
<rect x="48" y="28" width="2" height="2" fill="#8F6032"/>
<rect x="50" y="28" width="2" height="2" fill="#443323"/>
<rect x="52" y="28" width="2" height="2" fill="#6B4727"/>
<rect x="54" y="28" width="2" height="2" fill="#B37343"/>
<rect x="8" y="30" width="2" height="2" fill="#90603A"/>
<rect x="10" y="30" width="2" height="2" fill="#6B4728"/>
<rect x="12" y="30" width="2" height="2" fill="#6B5033"/>
<rect x="14" y="30" width="2" height="2" fill="#B57549"/>
<rect x="16" y="30" width="2" height="2" fill="#774F2C"/>
<rect x="18" y="30" width="2" height="2" fill="#6C6B69"/>
<rect x="20" y="30" width="2" height="2" fill="#010002"/>
<rect x="22" y="30" width="2" height="2" fill="#69696B"/>
<rect x="24" y="30" width="2" height="2" fill="#3B3B3B"/>
<rect x="26" y="30" width="2" height="2" fill="black"/>
<rect x="28" y="30" width="2" height="2" fill="#533E21"/>
<rect x="30" y="30" width="2" height="2" fill="#D48C5A"/>
<rect x="32" y="30" width="2" height="2" fill="#D68B5A"/>
<rect x="34" y="30" width="2" height="2" fill="#4F3E22"/>
<rect x="36" y="30" width="2" height="2" fill="#000001"/>
<rect x="38" y="30" width="2" height="2" fill="#6B6A6F"/>
<rect x="40" y="30" width="2" height="2" fill="#030002"/>
<rect x="42" y="30" width="2" height="2" fill="#726869"/>
<rect x="44" y="30" width="2" height="2" fill="#B1B5B4"/>
<rect x="46" y="30" width="2" height="2" fill="#76502C"/>
<rect x="48" y="30" width="2" height="2" fill="#B8704A"/>
<rect x="50" y="30" width="2" height="2" fill="#695230"/>
<rect x="52" y="30" width="2" height="2" fill="#6D4627"/>
<rect x="54" y="30" width="2" height="2" fill="#8C6039"/>
<rect x="8" y="32" width="2" height="2" fill="#6B4727"/>
<rect x="10" y="32" width="2" height="2" fill="#604323"/>
<rect x="12" y="32" width="2" height="2" fill="#875635"/>
<rect x="14" y="32" width="2" height="2" fill="#B57549"/>
<rect x="16" y="32" width="2" height="2" fill="#8F5F37"/>
<rect x="18" y="32" width="2" height="2" fill="#AB6E42"/>
<rect x="20" y="32" width="2" height="2" fill="#EB9798"/>
<rect x="22" y="32" width="2" height="2" fill="#BB5755"/>
<rect x="24" y="32" width="2" height="2" fill="#6A4727"/>
<rect x="26" y="32" width="2" height="2" fill="#614225"/>
<rect x="28" y="32" width="2" height="2" fill="#8F6038"/>
<rect x="30" y="32" width="2" height="2" fill="#CC8551"/>
<rect x="32" y="32" width="2" height="2" fill="#E79B69"/>
<rect x="34" y="32" width="2" height="2" fill="#8F5F39"/>
<rect x="36" y="32" width="2" height="2" fill="#5E4325"/>
<rect x="38" y="32" width="2" height="2" fill="#6A4729"/>
<rect x="40" y="32" width="2" height="2" fill="#BC5654"/>
<rect x="42" y="32" width="2" height="2" fill="#EE9597"/>
<rect x="44" y="32" width="2" height="2" fill="#AA6F43"/>
<rect x="46" y="32" width="2" height="2" fill="#905E39"/>
<rect x="48" y="32" width="2" height="2" fill="#B57343"/>
<rect x="50" y="32" width="2" height="2" fill="#885834"/>
<rect x="52" y="32" width="2" height="2" fill="#5F4222"/>
<rect x="54" y="32" width="2" height="2" fill="#6C4828"/>
<rect x="8" y="34" width="2" height="2" fill="#885834"/>
<rect x="10" y="34" width="2" height="2" fill="#604325"/>
<rect x="12" y="34" width="2" height="2" fill="#885635"/>
<rect x="14" y="34" width="2" height="2" fill="#DE7C7D"/>
<rect x="16" y="34" width="2" height="2" fill="#D88A5A"/>
<rect x="18" y="34" width="2" height="2" fill="#C07C4D"/>
<rect x="20" y="34" width="2" height="2" fill="#AE7145"/>
<rect x="22" y="34" width="2" height="2" fill="#8E5F38"/>
<rect x="24" y="34" width="2" height="2" fill="#AD7044"/>
<rect x="26" y="34" width="2" height="2" fill="#C97D4C"/>
<rect x="28" y="34" width="2" height="2" fill="#D78B5A"/>
<rect x="30" y="34" width="2" height="2" fill="#FFA25C"/>
<rect x="32" y="34" width="2" height="2" fill="#FFB47B"/>
<rect x="34" y="34" width="2" height="2" fill="#D98B5A"/>
<rect x="36" y="34" width="2" height="2" fill="#C9804D"/>
<rect x="38" y="34" width="2" height="2" fill="#AC6F43"/>
<rect x="40" y="34" width="2" height="2" fill="#8F5F37"/>
<rect x="42" y="34" width="2" height="2" fill="#A97142"/>
<rect x="44" y="34" width="2" height="2" fill="#BF7B4C"/>
<rect x="46" y="34" width="2" height="2" fill="#D88A5C"/>
<rect x="48" y="34" width="2" height="2" fill="#DC7A79"/>
<rect x="50" y="34" width="2" height="2" fill="#875733"/>
<rect x="52" y="34" width="2" height="2" fill="#604323"/>
<rect x="54" y="34" width="2" height="2" fill="#875733"/>
<rect x="8" y="36" width="2" height="2" fill="#8F6036"/>
<rect x="10" y="36" width="2" height="2" fill="#61431F"/>
<rect x="12" y="36" width="2" height="2" fill="#8E5E36"/>
<rect x="14" y="36" width="2" height="2" fill="#CF8351"/>
<rect x="16" y="36" width="2" height="2" fill="#E09261"/>
<rect x="18" y="36" width="2" height="2" fill="#F0A375"/>
<rect x="20" y="36" width="2" height="2" fill="#DE9362"/>
<rect x="22" y="36" width="2" height="2" fill="#CA7E4D"/>
<rect x="24" y="36" width="2" height="2" fill="#FFA156"/>
<rect x="26" y="36" width="2" height="2" fill="#FDBC96"/>
<rect x="28" y="36" width="2" height="2" fill="#E79B6A"/>
<rect x="30" y="36" width="2" height="2" fill="#FDA45D"/>
<rect x="32" y="36" width="2" height="2" fill="#FFB379"/>
<rect x="34" y="36" width="2" height="2" fill="#E79B67"/>
<rect x="36" y="36" width="2" height="2" fill="#FFBB96"/>
<rect x="38" y="36" width="2" height="2" fill="#FBA55C"/>
<rect x="40" y="36" width="2" height="2" fill="#C97F50"/>
<rect x="42" y="36" width="2" height="2" fill="#DE9362"/>
<rect x="44" y="36" width="2" height="2" fill="#F0A272"/>
<rect x="46" y="36" width="2" height="2" fill="#DF9361"/>
<rect x="48" y="36" width="2" height="2" fill="#D28058"/>
<rect x="50" y="36" width="2" height="2" fill="#915F3A"/>
<rect x="52" y="36" width="2" height="2" fill="#604222"/>
<rect x="54" y="36" width="2" height="2" fill="#8F6036"/>
<rect x="10" y="38" width="2" height="2" fill="#604225"/>
<rect x="12" y="38" width="2" height="2" fill="#885633"/>
<rect x="14" y="38" width="2" height="2" fill="#A46B40"/>
<rect x="16" y="38" width="2" height="2" fill="#AD6E43"/>
<rect x="18" y="38" width="2" height="2" fill="#BF7B4C"/>
<rect x="20" y="38" width="2" height="2" fill="#D88A5A"/>
<rect x="22" y="38" width="2" height="2" fill="#FEA35B"/>
<rect x="24" y="38" width="2" height="2" fill="#FFC69D"/>
<rect x="26" y="38" width="2" height="2" fill="#E09261"/>
<rect x="28" y="38" width="2" height="2" fill="#DA895A"/>
<rect x="30" y="38" width="2" height="2" fill="#FEB37A"/>
<rect x="32" y="38" width="2" height="2" fill="#FDD9B7"/>
<rect x="34" y="38" width="2" height="2" fill="#D88B57"/>
<rect x="36" y="38" width="2" height="2" fill="#DD9362"/>
<rect x="38" y="38" width="2" height="2" fill="#FFC5A7"/>
<rect x="40" y="38" width="2" height="2" fill="#FFA35A"/>
<rect x="42" y="38" width="2" height="2" fill="#D58C57"/>
<rect x="44" y="38" width="2" height="2" fill="#C17A4C"/>
<rect x="46" y="38" width="2" height="2" fill="#AD6E43"/>
<rect x="48" y="38" width="2" height="2" fill="#A16C44"/>
<rect x="50" y="38" width="2" height="2" fill="#875733"/>
<rect x="52" y="38" width="2" height="2" fill="#604323"/>
<rect x="10" y="40" width="2" height="2" fill="#634221"/>
<rect x="12" y="40" width="2" height="2" fill="#794E2B"/>
<rect x="14" y="40" width="2" height="2" fill="#9C613B"/>
<rect x="16" y="40" width="2" height="2" fill="#A46A42"/>
<rect x="18" y="40" width="2" height="2" fill="#BE7B4E"/>
<rect x="20" y="40" width="2" height="2" fill="#EFA372"/>
<rect x="22" y="40" width="2" height="2" fill="#F7AB79"/>
<rect x="24" y="40" width="2" height="2" fill="#D5885A"/>
<rect x="26" y="40" width="2" height="2" fill="#AD6E42"/>
<rect x="28" y="40" width="2" height="2" fill="#9A633C"/>
<rect x="30" y="40" width="2" height="2" fill="#A08362"/>
<rect x="32" y="40" width="2" height="2" fill="#A08365"/>
<rect x="34" y="40" width="2" height="2" fill="#9A633C"/>
<rect x="36" y="40" width="2" height="2" fill="#B06D41"/>
<rect x="38" y="40" width="2" height="2" fill="#D78B5A"/>
<rect x="40" y="40" width="2" height="2" fill="#F8A97E"/>
<rect x="42" y="40" width="2" height="2" fill="#F0A36F"/>
<rect x="44" y="40" width="2" height="2" fill="#C17A4E"/>
<rect x="46" y="40" width="2" height="2" fill="#A56A40"/>
<rect x="48" y="40" width="2" height="2" fill="#98643F"/>
<rect x="50" y="40" width="2" height="2" fill="#774F2B"/>
<rect x="52" y="40" width="2" height="2" fill="#5F4423"/>
<rect x="12" y="42" width="2" height="2" fill="#7A4F28"/>
<rect x="14" y="42" width="2" height="2" fill="#B37345"/>
<rect x="16" y="42" width="2" height="2" fill="#9A633C"/>
<rect x="18" y="42" width="2" height="2" fill="#D78B5A"/>
<rect x="20" y="42" width="2" height="2" fill="#FFBB94"/>
<rect x="22" y="42" width="2" height="2" fill="#E59C69"/>
<rect x="24" y="42" width="2" height="2" fill="#BE7B4F"/>
<rect x="26" y="42" width="2" height="2" fill="#523F1F"/>
<rect x="28" y="42" width="2" height="2" fill="#775029"/>
<rect x="30" y="42" width="2" height="2" fill="#885633"/>
<rect x="32" y="42" width="2" height="2" fill="#895837"/>
<rect x="34" y="42" width="2" height="2" fill="#775029"/>
<rect x="36" y="42" width="2" height="2" fill="#50401C"/>
<rect x="38" y="42" width="2" height="2" fill="#BF7B4E"/>
<rect x="40" y="42" width="2" height="2" fill="#E89A69"/>
<rect x="42" y="42" width="2" height="2" fill="#FFBC92"/>
<rect x="44" y="42" width="2" height="2" fill="#D58B5A"/>
<rect x="46" y="42" width="2" height="2" fill="#9C623A"/>
<rect x="48" y="42" width="2" height="2" fill="#B97047"/>
<rect x="50" y="42" width="2" height="2" fill="#765029"/>
<rect x="12" y="44" width="2" height="2" fill="#60441F"/>
<rect x="14" y="44" width="2" height="2" fill="#CB7F4E"/>
<rect x="16" y="44" width="2" height="2" fill="#99643C"/>
<rect x="18" y="44" width="2" height="2" fill="#E79B6A"/>
<rect x="20" y="44" width="2" height="2" fill="#F8AA79"/>
<rect x="22" y="44" width="2" height="2" fill="#CE8251"/>
<rect x="24" y="44" width="2" height="2" fill="#CF8352"/>
<rect x="26" y="44" width="2" height="2" fill="#D78B59"/>
<rect x="28" y="44" width="2" height="2" fill="#BF7B4C"/>
<rect x="30" y="44" width="2" height="2" fill="#A46B40"/>
<rect x="32" y="44" width="2" height="2" fill="#A56A40"/>
<rect x="34" y="44" width="2" height="2" fill="#C07B4A"/>
<rect x="36" y="44" width="2" height="2" fill="#D78B59"/>
<rect x="38" y="44" width="2" height="2" fill="#CF8352"/>
<rect x="40" y="44" width="2" height="2" fill="#CF8352"/>
<rect x="42" y="44" width="2" height="2" fill="#F7AB7A"/>
<rect x="44" y="44" width="2" height="2" fill="#E59A69"/>
<rect x="46" y="44" width="2" height="2" fill="#9B6139"/>
<rect x="48" y="44" width="2" height="2" fill="#C9804C"/>
<rect x="50" y="44" width="2" height="2" fill="#604323"/>
<rect x="12" y="46" width="2" height="2" fill="#563D1F"/>
<rect x="14" y="46" width="2" height="2" fill="#AB6E42"/>
<rect x="16" y="46" width="2" height="2" fill="#A26941"/>
<rect x="18" y="46" width="2" height="2" fill="#D68858"/>
<rect x="20" y="46" width="2" height="2" fill="#E89A6A"/>
<rect x="22" y="46" width="2" height="2" fill="#D08251"/>
<rect x="24" y="46" width="2" height="2" fill="#D58C59"/>
<rect x="26" y="46" width="2" height="2" fill="#F6AB7D"/>
<rect x="28" y="46" width="2" height="2" fill="#FFBF9B"/>
<rect x="30" y="46" width="2" height="2" fill="#DC9464"/>
<rect x="32" y="46" width="2" height="2" fill="#E19363"/>
<rect x="34" y="46" width="2" height="2" fill="#FFBF99"/>
<rect x="36" y="46" width="2" height="2" fill="#F8AA79"/>
<rect x="38" y="46" width="2" height="2" fill="#D88A59"/>
<rect x="40" y="46" width="2" height="2" fill="#D08252"/>
<rect x="42" y="46" width="2" height="2" fill="#E89A69"/>
<rect x="44" y="46" width="2" height="2" fill="#D78B5A"/>
<rect x="46" y="46" width="2" height="2" fill="#A46C3D"/>
<rect x="48" y="46" width="2" height="2" fill="#A77048"/>
<rect x="50" y="46" width="2" height="2" fill="#533E1F"/>
<rect x="14" y="48" width="2" height="2" fill="#885633"/>
<rect x="16" y="48" width="2" height="2" fill="#A96E42"/>
<rect x="18" y="48" width="2" height="2" fill="#CB7F4E"/>
<rect x="20" y="48" width="2" height="2" fill="#D78B5A"/>
<rect x="22" y="48" width="2" height="2" fill="#905F33"/>
<rect x="24" y="48" width="2" height="2" fill="#794F27"/>
<rect x="26" y="48" width="2" height="2" fill="#9A5C11"/>
<rect x="28" y="48" width="2" height="2" fill="#9B5B13"/>
<rect x="30" y="48" width="2" height="2" fill="#9D5B11"/>
<rect x="32" y="48" width="2" height="2" fill="#9D5A13"/>
<rect x="34" y="48" width="2" height="2" fill="#9C5A0E"/>
<rect x="36" y="48" width="2" height="2" fill="#9E5C0F"/>
<rect x="38" y="48" width="2" height="2" fill="#774F2B"/>
<rect x="40" y="48" width="2" height="2" fill="#8D6038"/>
<rect x="42" y="48" width="2" height="2" fill="#D78B5A"/>
<rect x="44" y="48" width="2" height="2" fill="#CB7D4C"/>
<rect x="46" y="48" width="2" height="2" fill="#AA6F45"/>
<rect x="48" y="48" width="2" height="2" fill="#845833"/>
<rect x="14" y="50" width="2" height="2" fill="#553D23"/>
<rect x="16" y="50" width="2" height="2" fill="#8E6038"/>
<rect x="18" y="50" width="2" height="2" fill="#B57247"/>
<rect x="20" y="50" width="2" height="2" fill="#C97F4E"/>
<rect x="22" y="50" width="2" height="2" fill="#C77D4E"/>
<rect x="24" y="50" width="2" height="2" fill="#CB7F4D"/>
<rect x="26" y="50" width="2" height="2" fill="#DA895A"/>
<rect x="28" y="50" width="2" height="2" fill="#E79B6D"/>
<rect x="30" y="50" width="2" height="2" fill="#FCA35F"/>
<rect x="32" y="50" width="2" height="2" fill="#FFA258"/>
<rect x="34" y="50" width="2" height="2" fill="#E79A6C"/>
<rect x="36" y="50" width="2" height="2" fill="#D58C57"/>
<rect x="38" y="50" width="2" height="2" fill="#C97F50"/>
<rect x="40" y="50" width="2" height="2" fill="#CB7F4E"/>
<rect x="42" y="50" width="2" height="2" fill="#CC7E4D"/>
<rect x="44" y="50" width="2" height="2" fill="#B57247"/>
<rect x="46" y="50" width="2" height="2" fill="#8F5F37"/>
<rect x="48" y="50" width="2" height="2" fill="#533D25"/>
<rect x="16" y="52" width="2" height="2" fill="#69472A"/>
<rect x="18" y="52" width="2" height="2" fill="#AA6F44"/>
<rect x="20" y="52" width="2" height="2" fill="#D08251"/>
<rect x="22" y="52" width="2" height="2" fill="#DF9362"/>
<rect x="24" y="52" width="2" height="2" fill="#CB7F4E"/>
<rect x="26" y="52" width="2" height="2" fill="#AD6E45"/>
<rect x="28" y="52" width="2" height="2" fill="#905F36"/>
<rect x="30" y="52" width="2" height="2" fill="#7E5230"/>
<rect x="32" y="52" width="2" height="2" fill="#7F532E"/>
<rect x="34" y="52" width="2" height="2" fill="#905F34"/>
<rect x="36" y="52" width="2" height="2" fill="#A97043"/>
<rect x="38" y="52" width="2" height="2" fill="#CB7F4E"/>
<rect x="40" y="52" width="2" height="2" fill="#DF9362"/>
<rect x="42" y="52" width="2" height="2" fill="#CD8353"/>
<rect x="44" y="52" width="2" height="2" fill="#AD6E45"/>
<rect x="46" y="52" width="2" height="2" fill="#6A4729"/>
<rect x="18" y="54" width="2" height="2" fill="#6D4627"/>
<rect x="20" y="54" width="2" height="2" fill="#AB7044"/>
<rect x="22" y="54" width="2" height="2" fill="#CE8251"/>
<rect x="24" y="54" width="2" height="2" fill="#DF9362"/>
<rect x="26" y="54" width="2" height="2" fill="#CB804F"/>
<rect x="28" y="54" width="2" height="2" fill="#CB7F4E"/>
<rect x="30" y="54" width="2" height="2" fill="#E79D6C"/>
<rect x="32" y="54" width="2" height="2" fill="#E89A6A"/>
<rect x="34" y="54" width="2" height="2" fill="#CB7F4E"/>
<rect x="36" y="54" width="2" height="2" fill="#CB7F4E"/>
<rect x="38" y="54" width="2" height="2" fill="#DF9362"/>
<rect x="40" y="54" width="2" height="2" fill="#CD8451"/>
<rect x="42" y="54" width="2" height="2" fill="#AD6E45"/>
<rect x="44" y="54" width="2" height="2" fill="#6E4629"/>
<rect x="20" y="56" width="2" height="2" fill="#523F20"/>
<rect x="22" y="56" width="2" height="2" fill="#885834"/>
<rect x="24" y="56" width="2" height="2" fill="#B57247"/>
<rect x="26" y="56" width="2" height="2" fill="#D78B5A"/>
<rect x="28" y="56" width="2" height="2" fill="#E89C6B"/>
<rect x="30" y="56" width="2" height="2" fill="#FFBF9B"/>
<rect x="32" y="56" width="2" height="2" fill="#FFBF9B"/>
<rect x="34" y="56" width="2" height="2" fill="#E79A6C"/>
<rect x="36" y="56" width="2" height="2" fill="#D58B5A"/>
<rect x="38" y="56" width="2" height="2" fill="#B57245"/>
<rect x="40" y="56" width="2" height="2" fill="#855733"/>
<rect x="42" y="56" width="2" height="2" fill="#523F1E"/>
<rect x="24" y="58" width="2" height="2" fill="#6B4727"/>
<rect x="26" y="58" width="2" height="2" fill="#8E6138"/>
<rect x="28" y="58" width="2" height="2" fill="#A46B40"/>
<rect x="30" y="58" width="2" height="2" fill="#A46B40"/>
<rect x="32" y="58" width="2" height="2" fill="#A56A40"/>
<rect x="34" y="58" width="2" height="2" fill="#A76A3E"/>
<rect x="36" y="58" width="2" height="2" fill="#8C5F38"/>
<rect x="38" y="58" width="2" height="2" fill="#66472A"/>
</svg>
